<?xml version="1.0" encoding="utf-8"?>
<!-- Generator: Adobe Illustrator 19.0.1, SVG Export Plug-In . SVG Version: 6.00 Build 0)  -->
<svg version="1.1" id="Шар_1" xmlns="http://www.w3.org/2000/svg" xmlns:xlink="http://www.w3.org/1999/xlink" x="0px" y="0px"
	 viewBox="-287.9 415.1 18.7 12" style="enable-background:new -287.9 415.1 18.7 12;" xml:space="preserve">
<path d="M-269.8,420.4l-0.1,0l-15.3,0l3.9-3.9c0.3-0.3,0.3-0.7,0.1-1l-0.1-0.1c-0.3-0.3-0.7-0.3-1-0.1l-0.1,0.1l-5.2,5.2
	c-0.3,0.3-0.3,0.7-0.1,1l0.1,0.1l5.2,5.2c0.3,0.3,0.8,0.3,1.1,0c0.3-0.3,0.3-0.7,0.1-1l-0.1-0.1l-3.9-3.9l15.3,0
	c0.4,0,0.7-0.3,0.8-0.7l0-0.1C-269.1,420.7-269.4,420.4-269.8,420.4z"/>
</svg>
