<?xml version="1.0" encoding="utf-8"?>
<!-- Generator: Adobe Illustrator 19.0.1, SVG Export Plug-In . SVG Version: 6.00 Build 0)  -->
<svg version="1.1" id="Шар_1" xmlns="http://www.w3.org/2000/svg" xmlns:xlink="http://www.w3.org/1999/xlink" x="0px" y="0px"
	 viewBox="-26.9 164.9 483.9 512" style="enable-background:new -26.9 164.9 483.9 512;" xml:space="preserve">
<g id="Page-1">
	<g id="_x30_16---Bag">
		<path id="Shape" d="M42.2,667.8c89.9,9,162.9,9.1,163.7,9.1h18.3c0.7,0,73.8-0.1,163.7-9.1c26.2-2.6,45.2-12.5,56.5-29.3
			c18.2-27.1,12.5-65.4,8.8-77.8c-27.8-93.4-46.5-296.2-53.2-379c-0.7-9.5-8.7-16.8-18.2-16.7h-20.5l0,1.4
			C357.3,303.5,282.7,366,215,366S72.8,303.6,68.9,166.6v-0.3v-1.4H48.4c-9.5-0.1-17.5,7.2-18.2,16.7c-6.7,82.8-25.4,285.6-53.2,379
			c-3.7,12.5-9.3,50.7,8.8,77.8C-3,655.3,16,665.2,42.2,667.8L42.2,667.8z M384.1,631.4c22.3-2.2,27.9-10.6,29.7-13.3
			c8.8-13.1,7-37.5,4.2-47c-1.3-4.8,1.4-9.8,6.2-11.2c4.8-1.4,9.8,1.2,11.3,6c3.6,11.9,6.6,42.8-6.5,62.4
			c-3,4.5-12.3,18.3-43.1,21.3c-0.3,0-0.6,0-0.9,0c-5,0.3-9.3-3.6-9.6-8.7C375.2,635.9,379.1,631.6,384.1,631.4L384.1,631.4z
			 M-5.6,565.9c1.5-4.7,6.6-7.4,11.3-6s7.5,6.4,6.2,11.2c-2.8,9.5-4.6,33.9,4.1,47c1.8,2.7,7.5,11.1,29.7,13.3
			c5,0.3,8.9,4.6,8.7,9.6c-0.3,5-4.6,8.9-9.6,8.7c-0.3,0-0.6,0-0.9,0c-30.8-3.1-40.1-16.8-43.1-21.3
			C-12.2,608.7-9.1,577.8-5.6,565.9L-5.6,565.9z"/>
		<path id="Shape_1_" d="M215,347.7c41.5,0,85.9-28.2,109.9-88.1c-28.6,30.1-68.4,46.9-109.9,46.5c-41.5,0.4-81.3-16.4-109.9-46.5
			C129.1,319.6,173.5,347.7,215,347.7L215,347.7z"/>
	</g>
</g>
</svg>
