<?xml version="1.0" encoding="utf-8"?>
<!-- Generator: Adobe Illustrator 19.0.1, SVG Export Plug-In . SVG Version: 6.00 Build 0)  -->
<svg version="1.1" id="Шар_1" xmlns="http://www.w3.org/2000/svg" xmlns:xlink="http://www.w3.org/1999/xlink" x="0px" y="0px"
	 viewBox="-282 405.9 30 30" style="enable-background:new -282 405.9 30 30;" xml:space="preserve">
<path d="M-254.4,425.6c-1.8,0-3.6-0.3-5.3-0.9c-0.8-0.3-1.9,0-2.4,0.5l-3.4,2.5c-3.9-2.1-6.3-4.5-8.4-8.4l2.5-3.3
	c0.6-0.6,0.9-1.6,0.6-2.5c-0.6-1.7-0.9-3.5-0.9-5.4c0-1.3-1.1-2.4-2.4-2.4h-5.5c-1.3,0-2.4,1.1-2.4,2.4c0,15.2,12.4,27.6,27.6,27.6
	c1.3,0,2.4-1.1,2.4-2.4V428C-252,426.7-253.1,425.6-254.4,425.6z"/>
</svg>
