<?xml version="1.0" encoding="utf-8"?>
<!-- Generator: Adobe Illustrator 19.0.1, SVG Export Plug-In . SVG Version: 6.00 Build 0)  -->
<svg version="1.1" id="Шар_1" xmlns="http://www.w3.org/2000/svg" xmlns:xlink="http://www.w3.org/1999/xlink" x="0px" y="0px"
	 viewBox="-287.3 412.6 16.7 16.7" style="enable-background:new -287.3 412.6 16.7 16.7;" xml:space="preserve">
<path d="M-279,412.6c4.6,0,8.3,3.7,8.3,8.3c0,4.6-3.7,8.3-8.3,8.3s-8.3-3.7-8.3-8.3C-287.3,416.3-283.6,412.6-279,412.6z
	 M-279,413.9c-3.8,0-6.9,3.1-6.9,6.9c0,3.8,3.1,6.9,6.9,6.9s6.9-3.1,6.9-6.9C-272.1,417.1-275.2,413.9-279,413.9z M-279.6,415.9
	c0.3,0,0.6,0.2,0.6,0.5l0,0.1v4.4h2.7c0.3,0,0.6,0.3,0.6,0.6c0,0.3-0.2,0.6-0.5,0.6l-0.1,0h-3.3c-0.3,0-0.6-0.2-0.6-0.5l0-0.1v-5
	C-280.3,416.2-280,415.9-279.6,415.9z"/>
</svg>
