<?xml version="1.0" encoding="utf-8"?>
<!-- Generator: Adobe Illustrator 19.0.1, SVG Export Plug-In . SVG Version: 6.00 Build 0)  -->
<svg version="1.1" id="Шар_1" xmlns="http://www.w3.org/2000/svg" xmlns:xlink="http://www.w3.org/1999/xlink" x="0px" y="0px"
	 viewBox="-289.7 414.2 13.3 13.3" style="enable-background:new -289.7 414.2 13.3 13.3;" xml:space="preserve">
<path d="M-289.5,414.5L-289.5,414.5c0.4-0.4,0.8-0.4,1.2-0.1l0.1,0.1l5.2,5.2l5.2-5.2c0.3-0.3,0.9-0.3,1.2,0c0.3,0.3,0.3,0.9,0,1.2
	l-5.2,5.2l5.2,5.2c0.3,0.3,0.3,0.8,0.1,1.1l-0.1,0.1c-0.3,0.3-0.8,0.3-1.1,0.1l-0.1-0.1l-5.2-5.2l-5.2,5.2c-0.3,0.3-0.9,0.3-1.2,0
	c-0.3-0.3-0.3-0.9,0-1.2l5.2-5.2l-5.2-5.2C-289.7,415.3-289.7,414.9-289.5,414.5L-289.5,414.5L-289.5,414.5z"/>
</svg>
