<?xml version="1.0" encoding="utf-8"?>
<!-- Generator: Adobe Illustrator 19.0.1, SVG Export Plug-In . SVG Version: 6.00 Build 0)  -->
<svg version="1.1" id="Capa_1" xmlns="http://www.w3.org/2000/svg" xmlns:xlink="http://www.w3.org/1999/xlink" x="0px" y="0px"
	 viewBox="-91 281.9 412 277.9" style="enable-background:new -91 281.9 412 277.9;" xml:space="preserve">
<g>
	<g>
		<g>
			<path d="M-91,498.4c0,4.2,3,7.5,7.2,7.5h11.5c7.7-17,25.3-29.9,45.6-29.9c20.4,0,37.9,12.9,45.6,29.9H168v-61H-91V498.4z"/>
			<path d="M-26.7,492.2c-18.7,0-33.8,15.1-33.8,33.8c0,18.7,15.1,33.8,33.8,33.8c18.7,0,33.8-15.1,33.8-33.8
				C7.1,507.3-8,492.2-26.7,492.2z"/>
			<path d="M316.6,420.1l-32.2-14.2H184v100h19.5c7.7-17,25.3-29.9,45.6-29.9s37.9,12.9,45.6,29.9h19.1c4.2,0,7.2-3.3,7.2-7.5v-71
				C321.1,424.3,319.4,421.4,316.6,420.1z"/>
			<path d="M251.3,348.3c-4-7.7-12-12.5-20.7-12.3H184v54h88.9L251.3,348.3z"/>
			<path d="M145,281.9H-68.2c-12.9,0-22.8,10.6-22.8,23.4v123.6h259V305.4c0,0,0-0.1,0-0.1C168.1,292.5,157.8,282.1,145,281.9z"/>
			<path d="M249.1,492.2c-18.7,0-33.8,15.1-33.8,33.8c0,18.7,15.1,33.8,33.8,33.8c18.7,0,33.8-15.1,33.8-33.8v0
				C282.9,507.3,267.8,492.2,249.1,492.2z"/>
		</g>
	</g>
</g>
</svg>
