<?xml version="1.0" encoding="utf-8"?>
<!-- Generator: Adobe Illustrator 19.0.1, SVG Export Plug-In . SVG Version: 6.00 Build 0)  -->
<svg version="1.1" id="Шар_1" xmlns="http://www.w3.org/2000/svg" xmlns:xlink="http://www.w3.org/1999/xlink" x="0px" y="0px"
	 viewBox="-265 395.9 36 50" style="enable-background:new -265 395.9 36 50;" xml:space="preserve">
<g>
	<g>
		<path d="M-242.4,401.4c-1.2-1.7-2.2-3.3-3.1-4.7c-0.1-0.2-0.3-0.4-0.5-0.5c-0.8-0.5-1.9-0.3-2.4,0.5c-0.9,1.4-1.9,2.9-3.1,4.7
			c-5.4,7.9-13.4,19.8-13.4,26.6c0,5,2,9.4,5.3,12.7c3.3,3.2,7.7,5.2,12.7,5.2c5,0,9.4-2,12.7-5.3c3.3-3.3,5.3-7.7,5.3-12.7
			C-229,421.1-237,409.3-242.4,401.4z M-236.7,438.1c-2.6,2.6-6.2,4.2-10.3,4.2c-4,0-7.6-1.6-10.3-4.2c-2.6-2.6-4.2-6.2-4.2-10.3
			c0-5.7,7.7-17,12.8-24.6c0.6-0.9,1.2-1.8,1.7-2.5c0.5,0.7,1.1,1.6,1.7,2.5c5.1,7.6,12.8,18.9,12.8,24.6
			C-232.5,431.9-234.2,435.5-236.7,438.1z"/>
		<path d="M-236.5,426.7c-1-0.1-1.8,0.7-1.8,1.6c-0.1,1.5-0.5,2.9-1.3,4.1c-0.7,1.2-1.8,2.3-3.1,3c-0.8,0.5-1.2,1.6-0.7,2.4
			c0.5,1,1.6,1.2,2.4,0.7c1.8-1,3.3-2.5,4.3-4.2c1.1-1.7,1.7-3.7,1.8-5.8C-234.8,427.6-235.5,426.7-236.5,426.7z"/>
	</g>
</g>
</svg>
