<?xml version="1.0" encoding="utf-8"?>
<!-- Generator: Adobe Illustrator 19.0.1, SVG Export Plug-In . SVG Version: 6.00 Build 0)  -->
<svg version="1.1" id="Шар_1" xmlns="http://www.w3.org/2000/svg" xmlns:xlink="http://www.w3.org/1999/xlink" x="0px" y="0px"
	 viewBox="-267 395.9 39.7 50" style="enable-background:new -267 395.9 39.7 50;" xml:space="preserve">
<path d="M-236.1,411.5c-8.9-5.4-4.7-13.1-4.6-13.4c0.3-0.5,0.3-1,0-1.5c-0.3-0.5-0.7-0.7-1.3-0.7c-4.6,0-8.2,1.3-10.7,3.9
	c-4.3,4.4-4.1,11.2-4,14.2c0,0.3,0,0.6,0,0.8c0,2.2,0.3,4.2,0.7,5.9c0.2,1.1,0.4,2.1,0.4,2.9c0,0.8-0.1,1-0.1,1c0,0-0.2,0.1-0.7,0.1
	c-0.6,0-1-0.2-1.3-0.6c-1.4-1.6-1.5-5.9-1.2-8.3c0-0.4-0.1-0.8-0.4-1.1c-0.3-0.3-0.7-0.5-1.1-0.5c-3.8,0-6.6,6.2-6.6,11.8
	c0,2.6,0.5,5.2,1.6,7.6c1,2.4,2.4,4.5,4.2,6.3c3.8,3.8,8.8,5.9,14,5.9c5.3,0,10.3-2.1,14-5.8c3.8-3.8,5.8-8.7,5.8-14
	C-227.3,419.3-232.5,413.7-236.1,411.5z M-247.1,443c-9.2,0-16.9-7.8-16.9-16.9c0-2.2,0.5-4.6,1.5-6.4c0.2-0.4,0.4-0.8,0.7-1.1
	c0,2.4,0.4,5.7,2.1,7.6c0.9,1,2.1,1.6,3.5,1.6c1.3,0,2.3-0.4,2.9-1.2c1.2-1.4,0.8-3.6,0.4-6.3c-0.3-1.7-0.6-3.5-0.6-5.4
	c0-0.3,0-0.5,0-0.9c-0.1-2.8-0.2-8.5,3.2-12c1.5-1.6,3.7-2.5,6.4-2.9c-0.3,1-0.6,2.3-0.6,3.7c0,3.2,1.2,7.7,7.1,11.3
	c2.9,1.7,7.4,6.5,7.4,12C-230.2,435.4-237.8,443-247.1,443z"/>
</svg>
