<?xml version="1.0" encoding="utf-8"?>
<!-- Generator: Adobe Illustrator 19.0.1, SVG Export Plug-In . SVG Version: 6.00 Build 0)  -->
<svg version="1.1" id="Шар_1" xmlns="http://www.w3.org/2000/svg" xmlns:xlink="http://www.w3.org/1999/xlink" x="0px" y="0px"
	 viewBox="-284.3 409.6 22.5 22.5" style="enable-background:new -284.3 409.6 22.5 22.5;" xml:space="preserve">
<path d="M-263,424.6c0.7,0,1.3,0.6,1.3,1.3s-0.6,1.3-1.3,1.3h-3.8v3.8c0,0.7-0.6,1.3-1.3,1.3s-1.3-0.6-1.3-1.3v-5
	c0-0.7,0.6-1.3,1.3-1.3H-263z M-283,424.6h5c0.6,0,1.2,0.5,1.2,1.1l0,0.1v5c0,0.7-0.6,1.3-1.3,1.3c-0.6,0-1.2-0.5-1.2-1.1l0-0.1
	v-3.8h-3.8c-0.7,0-1.3-0.6-1.3-1.3c0-0.6,0.5-1.2,1.1-1.2L-283,424.6h5H-283z M-268,409.6c0.6,0,1.2,0.5,1.2,1.1l0,0.1v3.8h3.8
	c0.7,0,1.3,0.6,1.3,1.3c0,0.6-0.5,1.2-1.1,1.2l-0.1,0h-5c-0.6,0-1.2-0.5-1.2-1.1l0-0.1v-5C-269.3,410.2-268.7,409.6-268,409.6z
	 M-278,409.6c0.7,0,1.3,0.6,1.3,1.3v5c0,0.7-0.6,1.3-1.3,1.3h-5c-0.7,0-1.3-0.6-1.3-1.3s0.6-1.3,1.3-1.3h3.8v-3.8
	C-279.3,410.2-278.7,409.6-278,409.6z"/>
</svg>
