<?xml version="1.0" encoding="iso-8859-1"?>
<!-- Generator: Adobe Illustrator 19.0.0, SVG Export Plug-In . SVG Version: 6.00 Build 0)  -->
<svg version="1.1" id="Capa_1" xmlns="http://www.w3.org/2000/svg" xmlns:xlink="http://www.w3.org/1999/xlink" x="0px" y="0px"
	 viewBox="0 0 512 512" style="enable-background:new 0 0 512 512;" xml:space="preserve">
<g>
	<g>
		<path d="M256,0C114.833,0,0,114.844,0,256s114.833,256,256,256s256-114.844,256-256S397.167,0,256,0z M256,469.333
			c-117.625,0-213.333-95.698-213.333-213.333c0-51.15,18.126-98.125,48.25-134.917l90.664,90.664
			c-17.803,31.995-32.247,64.703-32.247,86.919c0,58.813,47.854,106.667,106.667,106.667c32.594,0,61.458-15.01,81.04-38.126
			l53.876,53.876C354.124,451.208,307.147,469.333,256,469.333z M192,298.667c0-5.896,4.771-10.667,10.667-10.667
			c5.896,0,10.667,4.771,10.667,10.667c0,23.531,19.146,42.667,42.667,42.667c5.896,0,10.667,4.771,10.667,10.667
			c0,5.896-4.771,10.667-10.667,10.667C220.708,362.667,192,333.958,192,298.667z M421.083,390.917l-63.007-63.007
			c2.69-9.355,4.59-19.035,4.59-29.243c0-54.979-88.083-174.302-98.125-187.719c-4.042-5.396-13.042-5.396-17.083,0
			c-4.339,5.797-23.256,31.4-43.335,63.009l-83.04-83.04c36.793-30.125,83.77-48.25,134.917-48.25
			c117.625,0,213.333,95.698,213.333,213.333C469.333,307.15,451.207,354.125,421.083,390.917z"/>
	</g>
</g>
<g>
</g>
<g>
</g>
<g>
</g>
<g>
</g>
<g>
</g>
<g>
</g>
<g>
</g>
<g>
</g>
<g>
</g>
<g>
</g>
<g>
</g>
<g>
</g>
<g>
</g>
<g>
</g>
<g>
</g>
</svg>
