<?xml version="1.0" encoding="utf-8"?>
<!-- Generator: Adobe Illustrator 19.0.1, SVG Export Plug-In . SVG Version: 6.00 Build 0)  -->
<svg version="1.1" id="Шар_1" xmlns="http://www.w3.org/2000/svg" xmlns:xlink="http://www.w3.org/1999/xlink" x="0px" y="0px"
	 viewBox="-272 395.9 50 50" style="enable-background:new -272 395.9 50 50;" xml:space="preserve">
<g>
	<path d="M-247,395.9c-13.8,0-25,11.2-25,25c0,13.8,11.2,25,25,25s25-11.2,25-25C-222,407.1-233.2,395.9-247,395.9z M-247,443.4
		c-12.4,0-22.5-10.1-22.5-22.5s10.1-22.5,22.5-22.5c12.4,0,22.5,10.1,22.5,22.5S-234.6,443.4-247,443.4z"/>
	<path d="M-229.1,417l-0.2-0.4l-11.9,4.5l-4.6-17l-0.5,0.1l-0.5-0.1l-4.6,17l-11.9-4.5l-0.2,0.4l-0.3,0.3l17.2,20.2l0.4-0.1l0.4,0.1
		l17.1-20.2L-229.1,417z M-243.3,423.6l-2.5,4.1V408l3.7,13.7L-243.3,423.6z M-251.4,422.2l3.3,5.4l-12-8.7L-251.4,422.2z
		 M-245.8,435.9v-6.2l6.2-4.5l7.4-5.3L-245.8,435.9z"/>
</g>
</svg>
