<?xml version="1.0" encoding="utf-8"?>
<!-- Generator: Adobe Illustrator 19.0.1, SVG Export Plug-In . SVG Version: 6.00 Build 0)  -->
<svg version="1.1" id="Шар_1" xmlns="http://www.w3.org/2000/svg" xmlns:xlink="http://www.w3.org/1999/xlink" x="0px" y="0px"
	 viewBox="-272 395.9 50 50" style="enable-background:new -272 395.9 50 50;" xml:space="preserve">
<path d="M-223.3,397.2c-0.9-0.9-2.2-1.4-3.5-1.3c-3.3,0.3-9.4,1.2-15.3,2.7c-7.1,1.8-11.9,3.9-14.3,6.3c-3.4,3.4-5.8,8.5-6.4,13.6
	c-0.3,2.7-0.1,5.2,0.5,7.5c0.4,1.4,0.9,2.6,1.6,3.7c-0.9,1-1.8,2-2.6,2.9c-5.2,6-8.3,10.6-8.4,10.8c-0.5,0.7-0.3,1.7,0.4,2.2
	c0.3,0.2,0.6,0.3,0.9,0.3c0.5,0,1-0.2,1.3-0.7c0,0,3.1-4.7,8.2-10.5c0.7-0.8,1.4-1.5,2.1-2.4c0.1,0.1,0.1,0.1,0.2,0.2
	c1.7,1.7,3.9,3,6.5,3.7c1.6,0.4,3.2,0.6,4.9,0.6c0.8,0,1.7-0.1,2.6-0.2c5.2-0.6,10.2-3,13.6-6.4c2.4-2.4,4.5-7.2,6.3-14.3
	c1.5-6,2.4-12,2.7-15.3C-221.9,399.4-222.4,398.1-223.3,397.2z M-225.1,400.4c-0.7,7.5-3.7,23.3-8.1,27.7c-5.8,5.8-17.4,8-23.2,2.2
	c-0.1-0.1-0.2-0.2-0.3-0.3c4.4-4.5,9.9-9.5,16-13.3c0.7-0.5,1-1.4,0.5-2.2c-0.5-0.7-1.4-1-2.2-0.5c-6.1,3.8-11.7,8.8-16.1,13.3
	c-3-6.2-0.6-15.4,4.3-20.3c4.4-4.4,20.2-7.4,27.7-8.1c0,0,0.1,0,0.1,0c0.5,0,0.8,0.2,0.9,0.4C-225.3,399.6-225.1,399.9-225.1,400.4z
	"/>
</svg>
