<?xml version="1.0" encoding="utf-8"?>
<!-- Generator: Adobe Illustrator 19.0.1, SVG Export Plug-In . SVG Version: 6.00 Build 0)  -->
<svg version="1.1" id="Шар_1" xmlns="http://www.w3.org/2000/svg" xmlns:xlink="http://www.w3.org/1999/xlink" x="0px" y="0px"
	 viewBox="-272 398.9 50 43.8" style="enable-background:new -272 398.9 50 43.8;" xml:space="preserve">
<path d="M-261.1,411.4h-9.4c-0.9,0-1.6,0.7-1.6,1.6v28.1c0,0.9,0.7,1.6,1.6,1.6h9.4c0.9,0,1.6-0.7,1.6-1.6V413
	C-259.5,412.1-260.2,411.4-261.1,411.4z M-262.6,439.5h-6.3v-25h6.3V439.5z"/>
<path d="M-227.8,414.5h-9.2c-0.8,0-1.2-0.5-1.3-0.8c-0.1-0.2-0.4-0.8,0-1.6l3.3-5.9c0.7-1.3,0.8-2.8,0.2-4.1
	c-0.6-1.3-1.7-2.3-3.2-2.7l-2.3-0.6c-0.6-0.1-1.2,0-1.5,0.5l-12.5,13.8c-1.3,1.4-2,3.3-2,5.2v13.2c0,4.3,3.5,7.8,7.8,7.8l15.5,0
	c3.5,0,6.6-2.4,7.5-5.7l3.3-12.2c0.1-0.4,0.1-0.9,0.1-1.3C-222,417.1-224.6,414.5-227.8,414.5L-227.8,414.5z M-225.2,420.8
	l-3.3,12.1c-0.6,2-2.4,3.4-4.5,3.4h-15.5c-2.6,0-4.7-2.1-4.7-4.7v-13.2c0-1.2,0.4-2.3,1.2-3.1l11.8-13.1l1.4,0.3
	c0.5,0.1,0.9,0.4,1.1,0.9c0.2,0.4,0.2,1-0.1,1.4l-3.3,5.9c-0.8,1.5-0.8,3.2,0.1,4.7c0.9,1.4,2.4,2.3,4,2.3h9.2
	c1.5,0,2.6,1.2,2.6,2.6C-225.1,420.5-225.1,420.7-225.2,420.8L-225.2,420.8z"/>
</svg>
