<?xml version="1.0" encoding="utf-8"?>
<!-- Generator: Adobe Illustrator 19.0.1, SVG Export Plug-In . SVG Version: 6.00 Build 0)  -->
<svg version="1.1" id="Шар_1" xmlns="http://www.w3.org/2000/svg" xmlns:xlink="http://www.w3.org/1999/xlink" x="0px" y="0px"
	 viewBox="-272 399.9 50 41" style="enable-background:new -272 399.9 50 41;" xml:space="preserve">
<style type="text/css">
	.st0{fill:#1C1C1C;}
</style>
<path class="st0" d="M-247,433.1c-0.5,0-1,0.4-1,1c0,0.5,0.4,1,1,1s1-0.4,1-1C-246,433.5-246.5,433.1-247,433.1z"/>
<path d="M-226.2,401.4c-2.4-1-5.5-1.5-8.8-1.5s-6.4,0.5-8.8,1.5c-1.4,0.6-2.5,1.3-3.2,2.1c-0.7-0.8-1.8-1.5-3.2-2.1
	c-2.4-1-5.5-1.5-8.8-1.5c-3.3,0-6.4,0.5-8.8,1.5c-2.7,1.1-4.2,2.6-4.2,4.4v23.4c0,1.7,1.5,3.3,4.2,4.4c2.2,0.9,5.1,1.4,8.1,1.5v0
	c0,3.3,5.5,5.9,12.7,5.9s12.7-2.5,12.7-5.9v0c3-0.1,5.9-0.6,8.1-1.5c2.7-1.1,4.2-2.6,4.2-4.4v-23.4
	C-222,404-223.5,402.5-226.2,401.4z M-224,423.3c0,0.8-1.1,1.8-3,2.5c-2,0.8-4.6,1.3-7.4,1.3v-3.9c0,0,0,0,0,0
	c3-0.1,5.9-0.6,8.1-1.5c0.9-0.4,1.6-0.8,2.2-1.2L-224,423.3z M-248,411.6c0,0.8-1.1,1.8-3,2.5c-2.1,0.9-5.1,1.4-8.1,1.4
	c-3,0-5.9-0.5-8.1-1.4c-1.8-0.7-3-1.7-3-2.5v-2.7c0.6,0.4,1.4,0.8,2.2,1.2c2.4,1,5.5,1.5,8.8,1.5c3.3,0,6.4-0.5,8.8-1.5
	c0.9-0.4,1.6-0.8,2.2-1.2V411.6z M-267.8,416c2.4,1,5.5,1.5,8.8,1.5c3.3,0,6.4-0.5,8.8-1.5c0.9-0.4,1.6-0.8,2.2-1.2v2.7
	c-2.5,0.1-4.9,0.5-6.9,1.2c-2,0.7-3.4,1.6-4.1,2.7c-3,0-5.9-0.5-8-1.4c-1.8-0.7-3-1.7-3-2.5v-2.7
	C-269.4,415.2-268.7,415.6-267.8,416z M-270,420.6c0.6,0.4,1.4,0.8,2.2,1.2c2.2,0.9,5.1,1.4,8.1,1.5c0,0,0,0,0,0v3.9
	c-2.7-0.1-5.4-0.6-7.4-1.3c-1.8-0.7-3-1.7-3-2.5V420.6z M-257.6,422.8c0.7-1.7,4.9-3.4,10.6-3.4s9.9,1.7,10.6,3.4
	c0.1,0.2,0.1,0.3,0.1,0.5c0,0.9-1.1,1.8-2.8,2.6c-2.1,0.9-4.9,1.4-7.9,1.4s-5.8-0.5-7.9-1.4c-1.8-0.7-2.8-1.7-2.8-2.6
	C-257.7,423.2-257.7,423-257.6,422.8z M-224,417.5c0,0.8-1.1,1.8-3,2.5c-2.1,0.9-5.1,1.4-8,1.4c-0.8-1.1-2.2-2-4.1-2.7
	c-2-0.7-4.4-1.1-6.9-1.2v-2.7c0.6,0.4,1.4,0.8,2.2,1.2c2.4,1,5.5,1.5,8.8,1.5s6.4-0.5,8.8-1.5c0.9-0.4,1.6-0.8,2.2-1.2V417.5z
	 M-224,411.6c0,0.8-1.1,1.8-3,2.5c-2.1,0.9-5.1,1.4-8.1,1.4c-3,0-5.9-0.5-8.1-1.4c-1.8-0.7-3-1.7-3-2.5v-2.7
	c0.6,0.4,1.4,0.8,2.2,1.2c2.4,1,5.5,1.5,8.8,1.5s6.4-0.5,8.8-1.5c0.9-0.4,1.6-0.8,2.2-1.2V411.6z M-243.1,403.2
	c2.1-0.9,5.1-1.4,8.1-1.4c3,0,5.9,0.5,8.1,1.4c1.8,0.7,3,1.7,3,2.5s-1.1,1.8-3,2.5c-2.1,0.9-5.1,1.4-8.1,1.4c-3,0-5.9-0.5-8.1-1.4
	c-1.8-0.7-3-1.7-3-2.5S-244.9,403.9-243.1,403.2z M-267.1,403.2c2.1-0.9,5.1-1.4,8.1-1.4c3,0,5.9,0.5,8.1,1.4c1.8,0.7,3,1.7,3,2.5
	s-1.1,1.8-3,2.5c-2.1,0.9-5.1,1.4-8.1,1.4c-3,0-5.9-0.5-8.1-1.4c-1.8-0.7-3-1.7-3-2.5S-268.9,403.9-267.1,403.2z M-267.1,431.7
	c-1.8-0.7-3-1.7-3-2.5v-2.7c0.6,0.4,1.4,0.8,2.2,1.2c2.2,0.9,5.1,1.4,8.1,1.5v3.9C-262.4,433-265.1,432.5-267.1,431.7z
	 M-239.1,437.6c-2.1,0.9-4.9,1.4-7.9,1.4s-5.8-0.5-7.9-1.4c-1.8-0.7-2.8-1.7-2.8-2.6v-2.6c0.2,0.2,0.5,0.3,0.7,0.5
	c1.5,0.9,3.6,1.5,6,1.9c0,0,0.1,0,0.1,0c0.5,0,0.9-0.3,1-0.8c0.1-0.5-0.3-1-0.8-1.1c-4.5-0.7-7-2.4-7-3.6v-2.6
	c2.2,1.6,6.1,2.6,10.7,2.6s8.5-1,10.7-2.6v2.6c0,1.3-2.4,3-7,3.6c-0.5,0.1-0.9,0.6-0.8,1.1c0.1,0.5,0.5,0.8,1,0.8c0,0,0.1,0,0.1,0
	c2.4-0.4,4.5-1,6-1.9c0.3-0.2,0.5-0.3,0.7-0.5v2.6C-236.3,435.9-237.3,436.9-239.1,437.6z M-226.9,431.7c-2,0.8-4.6,1.3-7.4,1.3
	v-3.9c3-0.1,5.9-0.6,8.1-1.5c0.9-0.4,1.6-0.8,2.2-1.2v2.7C-224,430-225.1,431-226.9,431.7z"/>
</svg>
