<?xml version="1.0" encoding="utf-8"?>
<!-- Generator: Adobe Illustrator 19.0.1, SVG Export Plug-In . SVG Version: 6.00 Build 0)  -->
<svg version="1.1" id="Шар_1" xmlns="http://www.w3.org/2000/svg" xmlns:xlink="http://www.w3.org/1999/xlink" x="0px" y="0px"
	 viewBox="-272 397.9 50 45.9" style="enable-background:new -272 397.9 50 45.9;" xml:space="preserve">
<path d="M-225.9,440.9c-2.3-7.4-3.5-15.2-3.5-22.9v-1.5H-245c0-0.5,0-1,0-1.5v-1.5h-18.6v1.5c0,8.8-1.5,17.5-4.5,25.9h-3.9v2.9h50
	v-2.9H-225.9z M-265,440.9c2.7-7.9,4.1-16.1,4.3-24.4h12.7c0.2,8.3,1.6,16.5,4.3,24.4H-265z M-240.6,440.9
	c-2.5-6.9-3.9-14.2-4.3-21.5h12.6c0.1,7.3,1.3,14.5,3.3,21.5H-240.6z"/>
<path d="M-224.5,400.3c-0.9,0.9-1.5,1.5-2.9,1.5c-1.4,0-2-0.6-2.9-1.5c-1.1-1.1-2.4-2.4-5-2.4s-3.9,1.3-5,2.4
	c-0.9,0.9-1.5,1.5-2.9,1.5c-1.4,0-2-0.6-2.9-1.5c-1.1-1.1-2.4-2.4-4.9-2.4c-5.4,0-9.8,4.4-9.8,9.8v2.9h2.9v-2.9
	c0-3.8,3.1-6.8,6.8-6.8c1.4,0,2,0.6,2.9,1.5c1.1,1.1,2.4,2.4,4.9,2.4c2.6,0,3.9-1.3,5-2.4c0.9-0.9,1.5-1.5,2.9-1.5
	c1.4,0,2,0.6,2.9,1.5c1.1,1.1,2.4,2.4,5,2.4c2.6,0,3.9-1.3,5-2.4c0.2-0.2,0.3-0.3,0.4-0.4v-3.5
	C-223.1,398.9-223.9,399.7-224.5,400.3z"/>
<path d="M-223.5,409.1c-1.1-1.1-2.4-2.4-5-2.4c-3.8,0-6.8,3.1-6.8,6.8h2.9c0-2.2,1.8-3.9,3.9-3.9c1.4,0,2,0.6,2.9,1.5
	c0.9,0.8,1.9,1.9,3.6,2.2v-3.1C-222.5,410.1-223,409.6-223.5,409.1z"/>
</svg>
