<?xml version="1.0" encoding="utf-8"?>
<!-- Generator: Adobe Illustrator 19.0.1, SVG Export Plug-In . SVG Version: 6.00 Build 0)  -->
<svg version="1.1" id="Шар_1" xmlns="http://www.w3.org/2000/svg" xmlns:xlink="http://www.w3.org/1999/xlink" x="0px" y="0px"
	 viewBox="-286.9 411.5 20.8 19.3" style="enable-background:new -286.9 411.5 20.8 19.3;" xml:space="preserve">
<path d="M-274.5,411.5c0.8,0,1.6,0.4,2,1.2l0.8,1.4h2.2c1.9,0,3.4,1.5,3.4,3.4v9.9c0,1.9-1.5,3.4-3.4,3.4h-14.1
	c-1.9,0-3.4-1.5-3.4-3.4v-9.9c0-1.9,1.5-3.4,3.4-3.4h2.2l0.9-1.5c0.4-0.7,1.2-1.1,2-1.1H-274.5z M-274.5,413.1h-4
	c-0.2,0-0.5,0.1-0.6,0.3l-0.1,0.1l-1.1,1.9c-0.1,0.2-0.4,0.4-0.7,0.4h-2.6c-1,0-1.8,0.8-1.8,1.8v9.9c0,1,0.8,1.8,1.8,1.8h14.1
	c1,0,1.8-0.8,1.8-1.8v-9.9c0-1-0.8-1.8-1.8-1.8h-2.6c-0.3,0-0.5-0.1-0.7-0.4l-1.1-1.8C-274,413.2-274.2,413.1-274.5,413.1z
	 M-276.5,417.2c2.6,0,4.7,2.1,4.7,4.7c0,2.6-2.1,4.7-4.7,4.7c-2.6,0-4.7-2.1-4.7-4.7C-281.2,419.3-279.1,417.2-276.5,417.2z
	 M-276.5,418.8c-1.7,0-3.1,1.4-3.1,3.1s1.4,3.1,3.1,3.1s3.1-1.4,3.1-3.1S-274.8,418.8-276.5,418.8z"/>
</svg>
