<?xml version="1.0" encoding="utf-8"?>
<!-- Generator: Adobe Illustrator 19.0.1, SVG Export Plug-In . SVG Version: 6.00 Build 0)  -->
<svg version="1.1" id="Шар_1" xmlns="http://www.w3.org/2000/svg" xmlns:xlink="http://www.w3.org/1999/xlink" x="0px" y="0px"
	 viewBox="-115 238.9 263.1 365" style="enable-background:new -115 238.9 263.1 365;" xml:space="preserve">
<path d="M-41.8,287.9c3.8,2.5,7.8,4.7,11.9,6.6c1.4-1.1,2.8-2,4.4-2.8c2.2-1.1,4.9-0.9,6.9,0.7c2,1.5,2.9,4,2.4,6.5
	c0,0-0.1,0.4-0.2,1c7.8,2.5,15.8,4.1,24,4.7l-10.3-31c-1.1-3.4,0.7-7.1,4.1-8.3c3.4-1.1,7.1,0.7,8.3,4.1l6.8,20.5l6.9-20.6
	c1.1-3.4,4.8-5.3,8.2-4.1c3.4,1.1,5.3,4.8,4.1,8.3l-10.3,30.9c17.5-1.8,34.4-7.6,49.3-16.9c-0.2-8.7,2.5-27.6,26.2-47
	c-10-2.1-20.4-0.7-29.4,4.1c-16.3,8.1-23,5.4-31.5,0.4c-7-4.5-15.2-6.7-23.5-6.2C8.2,238.5,0,240.7-7,245.2
	c-8.5,5-15.3,7.7-31.5-0.4c-9-4.8-19.4-6.3-29.4-4.1C-43.9,260.3-41.5,279.3-41.8,287.9z"/>
<path d="M131.1,544.5c17.9-39.8,18.5-99.3,15.8-142.2C141.4,314.6,93.2,300,83,297.9c-20.1,12.8-43.3,19.7-67.1,19.9
	c-9.4,0-18.7-1.1-27.8-3.3c-1.8-0.4-3.4-1-5.1-1.4c-0.1,11.8,4.2,23.2,12.1,32c2.5,2.6,2.4,6.6-0.1,9.1c-2.5,2.5-6.6,2.5-9.1,0.1
	c-10.2-11.1-15.9-25.6-15.9-40.7c-6.3,10.5-8.3,23.1-5.6,35c0.6,3.6-1.8,6.9-5.4,7.5c-0.4,0.1-0.7,0.1-1.1,0.1
	c-3.2,0-5.9-2.3-6.4-5.4c-3.6-16.1-0.3-33,9.1-46.5c-3.7-1.9-7.3-4-10.8-6.3c-11,2.2-58.1,16.9-63.6,104.3
	c-2.7,42.9-2.1,102.5,15.8,142.2c1.2,2.8,1.5,5.9,0.6,8.8l-8.4,46.9c-0.1,0.3-0.1,0.6-0.2,0.9l43-9.1c1-0.3,2-0.4,3-0.4
	c2.8,0,5.4,0.9,7.7,2.5c11.4,8.1,43.8,9.8,68.8,9.8c25.1,0,57.4-1.7,68.9-9.8c3.2-2.3,7.3-3.1,11.1-2l42.3,8.6l-8.4-47.4
	C129.6,550.4,129.8,547.3,131.1,544.5z M-65.3,538c-1.5,0.8-3.3,0.9-5,0.4c-1.6-0.5-3-1.7-3.8-3.3c-26.9-53.7-7.8-125.4-7-128.4
	c0.6-2.2,2.4-4,4.6-4.6c2.3-0.6,4.6,0.1,6.3,1.7s2.3,4.1,1.7,6.3c-0.2,0.7-18.6,69.9,6.1,119.2c0.8,1.5,0.9,3.3,0.4,5
	C-62.5,535.9-63.7,537.2-65.3,538L-65.3,538z M106.6,535.1c-1.6,3.2-5.5,4.5-8.7,2.9c-3.2-1.6-4.5-5.5-2.9-8.7
	c24.7-49.3,6.2-118.5,6.1-119.2c-0.6-2.2,0-4.6,1.7-6.3c1.6-1.7,4-2.3,6.3-1.7c2.2,0.6,4,2.3,4.6,4.6
	C114.4,409.7,133.4,481.4,106.6,535.1L106.6,535.1z"/>
</svg>
