<?xml version="1.0" encoding="utf-8"?>
<!-- Generator: Adobe Illustrator 19.0.1, SVG Export Plug-In . SVG Version: 6.00 Build 0)  -->
<svg version="1.1" id="Шар_1" xmlns="http://www.w3.org/2000/svg" xmlns:xlink="http://www.w3.org/1999/xlink" x="0px" y="0px"
	 viewBox="-284.8 408.7 24.3 24.3" style="enable-background:new -284.8 408.7 24.3 24.3;" xml:space="preserve">
<path d="M-279.3,423.7l-1.8,7.8c-0.1,0.2,0,0.5,0,0.7s0.2,0.4,0.4,0.6c0.2,0.1,0.4,0.2,0.7,0.2c0.2,0,0.5-0.1,0.7-0.2l6.6-4.4
	l6.6,4.4c0.2,0.1,0.5,0.2,0.7,0.2c0.2,0,0.5-0.1,0.7-0.2c0.2-0.1,0.4-0.4,0.4-0.6s0.1-0.5,0-0.7l-2.2-7.8l5.5-5
	c0.2-0.2,0.3-0.4,0.4-0.6c0.1-0.2,0.1-0.5,0-0.7c-0.1-0.2-0.2-0.4-0.4-0.6c-0.2-0.1-0.4-0.2-0.7-0.3l-6.9-0.6l-3-6.6
	c-0.1-0.2-0.3-0.4-0.4-0.5c-0.2-0.1-0.4-0.2-0.7-0.2c-0.2,0-0.5,0.1-0.7,0.2c-0.2,0.1-0.4,0.3-0.4,0.5l-3,6.6l-6.9,0.6
	c-0.2,0-0.5,0.1-0.6,0.2c-0.2,0.1-0.3,0.3-0.4,0.6c-0.1,0.2-0.1,0.5,0,0.7c0.1,0.2,0.2,0.4,0.3,0.6L-279.3,423.7z M-275.8,418.5
	c0.2,0,0.4-0.1,0.6-0.2c0.2-0.1,0.3-0.3,0.4-0.5l2.2-4.8l2.2,4.8c0.1,0.2,0.2,0.4,0.4,0.5c0.2,0.1,0.4,0.2,0.6,0.2l4.8,0.4l-4,3.6
	c-0.3,0.3-0.5,0.8-0.4,1.2l1.5,5.3l-4.5-3c-0.2-0.1-0.4-0.2-0.7-0.2c-0.2,0-0.5,0.1-0.7,0.2l-4.7,3.2l1.3-5.5c0-0.2,0-0.4,0-0.6
	c-0.1-0.2-0.2-0.4-0.3-0.5l-3.7-3.6L-275.8,418.5z"/>
</svg>
