<?xml version="1.0" encoding="utf-8"?>
<!-- Generator: Adobe Illustrator 19.0.1, SVG Export Plug-In . SVG Version: 6.00 Build 0)  -->
<svg version="1.1" id="Шар_1" xmlns="http://www.w3.org/2000/svg" xmlns:xlink="http://www.w3.org/1999/xlink" x="0px" y="0px"
	 viewBox="-284.4 408 23.7 25" style="enable-background:new -284.4 408 23.7 25;" xml:space="preserve">
<path d="M-263.3,410.5c-0.6-0.5-3.2-2.4-8.7-2.4c0,0-6.6-0.4-9.8,2.5c-1.8,1.8-2.4,4.4-2.5,7.7c0,3.2-0.1,9.3,5.7,11v2.5
	c0,0,0,1,0.6,1.3c0.8,0.2,1.3-0.5,2.1-1.4c0.4-0.5,1-1.1,1.5-1.7c4,0.3,7.1-0.4,7.5-0.5c0.8-0.3,5.4-0.9,6.1-6.9
	C-260.1,416.2-261.3,412.3-263.3,410.5z M-262.7,422c-0.6,5.1-4.3,5.4-5,5.7c-0.3,0-3,0.7-6.4,0.5c0,0-2.5,3-3.3,3.9
	c-0.2,0.2-0.5,0.2-0.5-0.3c0-0.3,0-4.2,0-4.2c-4.9-1.4-4.6-6.5-4.6-9.2c0-2.7,0.5-4.9,2.1-6.4c2.7-2.5,8.3-2.1,8.3-2.1
	c4.7,0,7,1.5,7.5,1.9C-262.9,413.2-262,416.8-262.7,422z M-269.5,418.1c0-1.4-0.8-2.2-2.1-2.3c-0.4,0-0.5,0.6,0,0.6
	c1,0.1,1.5,0.6,1.6,1.7C-270.1,418.6-269.4,418.5-269.5,418.1z M-268.4,418.7c0,0.4,0.6,0.4,0.6,0c0-2.3-1.5-4.3-4.3-4.5
	c-0.4,0-0.5,0.6,0,0.6C-269.7,414.9-268.4,416.6-268.4,418.7z M-266.2,419.3c0-4.2-2.9-6.7-6.5-6.8c-0.4,0-0.4,0.6,0,0.6
	c3.2,0,5.9,2.2,5.9,6.2C-266.8,419.7-266.2,419.7-266.2,419.3z M-266.7,424.1c0.2-0.4,0.2-0.8-0.1-1.1c-0.6-0.6-1.5-1.2-2.2-1.6
	c-0.5-0.3-1.1-0.1-1.3,0.2l-0.4,0.6c-0.2,0.3-0.7,0.2-0.7,0.2c-3.3-0.8-4.2-4.1-4.2-4.1s0-0.4,0.3-0.7l0.6-0.5
	c0.3-0.2,0.4-0.8,0.1-1.3c-0.1-0.3-0.5-0.8-0.7-1.1c-0.2-0.4-0.9-1.1-0.9-1.1c-0.2-0.4-0.7-0.4-1.1-0.2h0c-0.9,0.5-2,1.5-1.6,2.5
	c0,0,0.2,0.9,1.3,2.7c0.5,0.9,1,1.7,1.5,2.3c0.5,0.7,1.3,1.4,2.1,2.1c1.6,1.2,4,2.5,5,2.8h0C-268.3,426.1-267.2,425.1-266.7,424.1
	L-266.7,424.1z"/>
</svg>
