<?xml version="1.0" encoding="utf-8"?>
<!-- Generator: Adobe Illustrator 19.0.1, SVG Export Plug-In . SVG Version: 6.00 Build 0)  -->
<svg version="1.1" id="Шар_1" xmlns="http://www.w3.org/2000/svg" xmlns:xlink="http://www.w3.org/1999/xlink" x="0px" y="0px"
	 viewBox="-286 410.6 21.9 21.9" style="enable-background:new -286 410.6 21.9 21.9;" xml:space="preserve">
<path d="M-267.4,413.8c-2-2.1-4.7-3.2-7.7-3.2c-6,0-10.8,4.9-10.8,10.8c0,2,0.5,3.8,1.5,5.4l-1.5,5.6l5.7-1.5
	c1.6,0.8,3.4,1.3,5.2,1.3c6,0,11-4.9,11-10.8C-264.1,418.5-265.4,415.9-267.4,413.8z M-275.1,430.5c-1.6,0-3.2-0.4-4.6-1.3l-0.3-0.2
	l-3.4,0.9l0.9-3.3l-0.2-0.3c-0.9-1.5-1.4-3.1-1.4-4.8c0-4.9,4.1-9,9-9c2.4,0,4.6,0.9,6.3,2.6c1.7,1.7,2.7,4,2.7,6.4
	C-266,426.4-270.1,430.5-275.1,430.5z M-270.1,423.7c-0.3-0.1-1.6-0.8-1.9-0.9c-0.2-0.1-0.4-0.1-0.6,0.1c-0.1,0.2-0.7,0.9-0.8,1.1
	c-0.2,0.1-0.3,0.2-0.6,0c-1.6-0.8-2.6-1.4-3.7-3.2c-0.3-0.5,0.3-0.4,0.8-1.5c0.1-0.2,0-0.3,0-0.5s-0.6-1.5-0.8-2
	c-0.2-0.5-0.4-0.5-0.6-0.5c-0.1,0-0.3,0-0.5,0c-0.2,0-0.5,0-0.7,0.3s-0.9,0.9-0.9,2.2c0,1.4,0.9,2.6,1.1,2.8
	c0.1,0.1,1.9,2.9,4.6,4.1c1.7,0.8,2.4,0.8,3.3,0.7c0.5,0,1.6-0.6,1.8-1.3c0.2-0.6,0.2-1.2,0.1-1.3
	C-269.7,423.9-269.9,423.9-270.1,423.7z"/>
</svg>
