<?xml version="1.0" standalone="no"?>
<!DOCTYPE svg PUBLIC "-//W3C//DTD SVG 1.1//EN" "http://www.w3.org/Graphics/SVG/1.1/DTD/svg11.dtd" >
<svg xmlns="http://www.w3.org/2000/svg">
<metadata>Generated by IcoMoon</metadata>
<defs>
<font id="icomoon" horiz-adv-x="1024">
<font-face units-per-em="1024" ascent="960" descent="-64" />
<missing-glyph horiz-adv-x="1024" />
<glyph unicode="&#x20;" horiz-adv-x="512" d="" />
<glyph unicode="&#xe900;" glyph-name="arrow-bottom" horiz-adv-x="1053" d="M1033.57 510.206c-28.71 28.71-76.561 28.71-105.271 0l-334.953-334.953v784.748h-143.551v-784.748l-334.953 334.953c-28.71 28.71-76.561 28.71-105.271 0s-28.71-76.561 0-105.271l459.364-459.364c28.71-28.71 76.561-28.71 105.271 0l459.364 459.364c28.71 28.71 28.71 76.561 0 105.271z" />
<glyph unicode="&#xe901;" glyph-name="arrow-left" horiz-adv-x="1596" d="M1544.533 507.733h-1314.133l332.8 332.8c25.6 25.6 25.6 59.733 8.533 85.333l-8.533 8.533c-25.6 25.6-59.733 25.6-85.333 8.533l-452.267-452.267c-25.6-25.6-25.6-59.733-8.533-85.333l452.267-452.267c25.6-25.6 68.267-25.6 93.867 0s25.6 59.733 8.533 85.333l-341.333 341.333h1305.6c34.133 0 59.733 25.6 68.267 59.733v8.533c0 34.133-25.6 59.733-59.733 59.733z" />
<glyph unicode="&#xe902;" glyph-name="arrow-right" horiz-adv-x="1596" d="M1041.067 925.867v0c34.133 34.133 68.267 34.133 93.867 17.067l452.267-452.267c25.6-25.6 25.6-59.733 8.533-85.333l-452.267-452.267c-25.6-25.6-68.267-25.6-93.867 0s-25.6 59.733-8.533 85.333l341.333 341.333h-1305.6c-34.133 0-59.733 25.6-68.267 59.733v8.533c0 34.133 25.6 59.733 59.733 68.267h1314.133l-332.8 332.8c-25.6 17.067-34.133 51.2-8.533 76.8v0 0z" />
<glyph unicode="&#xe903;" glyph-name="call" d="M942.080 287.573c-61.44 0-122.88 10.24-180.907 30.72-27.307 10.24-64.853 0-81.92-17.067l-116.053-85.333c-133.12 71.68-215.040 153.6-286.72 286.72l85.333 112.64c20.48 20.48 30.72 54.613 20.48 85.333-20.48 58.027-30.72 119.467-30.72 184.32 0 44.373-37.547 81.92-81.92 81.92h-187.733c-44.373 0-81.92-37.547-81.92-81.92 0-518.827 423.253-942.080 942.080-942.080 44.373 0 81.92 37.547 81.92 81.92v180.907c0 44.373-37.547 81.92-81.92 81.92z" />
<glyph unicode="&#xe904;" glyph-name="check" horiz-adv-x="1378" d="M429.827 112.988l-303.407 303.407c-25.284 25.284-75.852 25.284-113.778 0-25.284-25.284-25.284-75.852 0-113.778l353.975-353.975c25.284-25.284 75.852-25.284 113.778 0l872.296 872.296c25.284 25.284 25.284 75.852 0 113.778-25.284 25.284-75.852 25.284-113.778 0l-809.086-821.728z" />
<glyph unicode="&#xe905;" glyph-name="clock" d="M508.934 960c282.060 0 508.934-226.874 508.934-508.934s-226.874-508.934-508.934-508.934-508.934 226.874-508.934 508.934c0 282.060 226.874 508.934 508.934 508.934zM508.934 880.287c-233.006 0-423.090-190.084-423.090-423.090s190.084-423.090 423.090-423.090 423.090 190.084 423.090 423.090c0 226.874-190.084 423.090-423.090 423.090zM472.144 757.653c18.395 0 36.79-12.263 36.79-30.659v-275.928h165.557c18.395 0 36.79-18.395 36.79-36.79s-12.263-36.79-30.659-36.79h-208.479c-18.395 0-36.79 12.263-36.79 30.659v312.719c-6.132 18.395 12.263 36.79 36.79 36.79z" />
<glyph unicode="&#xe906;" glyph-name="close" d="M15.398 936.902v0c30.797 30.797 61.594 30.797 92.391 7.699l408.060-408.060 400.361 400.361c23.098 23.098 69.293 23.098 92.391 0s23.098-69.293 0-92.391l-400.361-400.361 400.361-400.361c23.098-23.098 23.098-61.594 7.699-84.692l-7.699-7.699c-23.098-23.098-61.594-23.098-84.692-7.699l-408.060 408.060-400.361-400.361c-23.098-23.098-69.293-23.098-92.391 0s-23.098 69.293 0 92.391l400.361 400.361-400.361 400.361c-23.098 30.797-23.098 61.594-7.699 92.391v0 0z" />
<glyph unicode="&#xe907;" glyph-name="drop" horiz-adv-x="737" d="M462.848 847.36c-24.576 34.816-45.056 67.584-63.488 96.256-2.048 4.096-6.144 8.192-10.24 10.24-16.384 10.24-38.912 6.144-49.152-10.24-18.432-28.672-38.912-59.392-63.488-96.256-110.592-161.792-274.432-405.504-274.432-544.768 0-102.4 40.96-192.512 108.544-260.096 67.584-65.536 157.696-106.496 260.096-106.496s192.512 40.96 260.096 108.544c67.584 67.584 108.544 157.696 108.544 260.096-2.048 139.264-165.888 380.928-276.48 542.72zM579.584 95.744c-53.248-53.248-126.976-86.016-210.944-86.016-81.92 0-155.648 32.768-210.944 86.016-53.248 53.248-86.016 126.976-86.016 210.944 0 116.736 157.696 348.16 262.144 503.808 12.288 18.432 24.576 36.864 34.816 51.2 10.24-14.336 22.528-32.768 34.816-51.2 104.448-155.648 262.144-387.072 262.144-503.808 0-83.968-34.816-157.696-86.016-210.944zM583.68 329.216c-20.48 2.048-36.864-14.336-36.864-32.768-2.048-30.72-10.24-59.392-26.624-83.968-14.336-24.576-36.864-47.104-63.488-61.44-16.384-10.24-24.576-32.768-14.336-49.152 10.24-20.48 32.768-24.576 49.152-14.336 36.864 20.48 67.584 51.2 88.064 86.016 22.528 34.816 34.816 75.776 36.864 118.784 2.048 18.432-12.288 36.864-32.768 36.864z" />
<glyph unicode="&#xe908;" glyph-name="fire" horiz-adv-x="813" d="M632.832 640.512c-182.272 110.592-96.256 268.288-94.208 274.432 6.144 10.24 6.144 20.48 0 30.72s-14.336 14.336-26.624 14.336c-94.208 0-167.936-26.624-219.136-79.872-88.064-90.112-83.968-229.376-81.92-290.816 0-6.144 0-12.288 0-16.384 0-45.056 6.144-86.016 14.336-120.832 4.096-22.528 8.192-43.008 8.192-59.392s-2.048-20.48-2.048-20.48c0 0-4.096-2.048-14.336-2.048-12.288 0-20.48 4.096-26.624 12.288-28.672 32.768-30.72 120.832-24.576 169.984 0 8.192-2.048 16.384-8.192 22.528s-14.336 10.24-22.528 10.24c-77.824 0-135.168-126.976-135.168-241.664 0-53.248 10.24-106.496 32.768-155.648 20.48-49.152 49.152-92.16 86.016-129.024 77.824-77.824 180.224-120.832 286.72-120.832 108.544 0 210.944 43.008 286.72 118.784 77.824 77.824 118.784 178.176 118.784 286.72 2.048 137.216-104.448 251.904-178.176 296.96zM407.552-4.608c-188.416 0-346.112 159.744-346.112 346.112 0 45.056 10.24 94.208 30.72 131.072 4.096 8.192 8.192 16.384 14.336 22.528 0-49.152 8.192-116.736 43.008-155.648 18.432-20.48 43.008-32.768 71.68-32.768 26.624 0 47.104 8.192 59.392 24.576 24.576 28.672 16.384 73.728 8.192 129.024-6.144 34.816-12.288 71.68-12.288 110.592 0 6.144 0 10.24 0 18.432-2.048 57.344-4.096 174.080 65.536 245.76 30.72 32.768 75.776 51.2 131.072 59.392-6.144-20.48-12.288-47.104-12.288-75.776 0-65.536 24.576-157.696 145.408-231.424 59.392-34.816 151.552-133.12 151.552-245.76-4.096-190.464-159.744-346.112-350.208-346.112z" />
<glyph unicode="&#xe909;" glyph-name="layer" d="M512 960c-282.624 0-512-229.376-512-512s229.376-512 512-512 512 229.376 512 512c0 282.624-229.376 512-512 512zM512-12.8c-253.952 0-460.8 206.848-460.8 460.8s206.848 460.8 460.8 460.8c253.952 0 460.8-206.848 460.8-460.8s-206.848-460.8-460.8-460.8zM878.592 527.872l-4.096 8.192-243.712-92.16-94.208 348.16-10.24-2.048-10.24 2.048-94.208-348.16-243.712 92.16-4.096-8.192-6.144-6.144 352.256-413.696 8.192 2.048 8.192-2.048 350.208 413.696-8.192 6.144zM587.776 392.704l-51.2-83.968v403.456l75.776-280.576-24.576-38.912zM421.888 421.376l67.584-110.592-245.76 178.176 178.176-67.584zM536.576 140.8v126.976l126.976 92.16 151.552 108.544-278.528-327.68z" />
<glyph unicode="&#xe90a;" glyph-name="letter" d="M997.376 933.376c-18.432 18.432-45.056 28.672-71.68 26.624-67.584-6.144-192.512-24.576-313.344-55.296-145.408-36.864-243.712-79.872-292.864-129.024-69.632-69.632-118.784-174.080-131.072-278.528-6.144-55.296-2.048-106.496 10.24-153.6 8.192-28.672 18.432-53.248 32.768-75.776-18.432-20.48-36.864-40.96-53.248-59.392-106.496-122.88-169.984-217.088-172.032-221.184-10.24-14.336-6.144-34.816 8.192-45.056 6.144-4.096 12.288-6.144 18.432-6.144 10.24 0 20.48 4.096 26.624 14.336 0 0 63.488 96.256 167.936 215.040 14.336 16.384 28.672 30.72 43.008 49.152 2.048-2.048 2.048-2.048 4.096-4.096 34.816-34.816 79.872-61.44 133.12-75.776 32.768-8.192 65.536-12.288 100.352-12.288 16.384 0 34.816 2.048 53.248 4.096 106.496 12.288 208.896 61.44 278.528 131.072 49.152 49.152 92.16 147.456 129.024 292.864 30.72 122.88 49.152 245.76 55.296 313.344 2.048 24.576-8.192 51.2-26.624 69.632zM960.512 867.84c-14.336-153.6-75.776-477.184-165.888-567.296-118.784-118.784-356.352-163.84-475.136-45.056-2.048 2.048-4.096 4.096-6.144 6.144 90.112 92.16 202.752 194.56 327.68 272.384 14.336 10.24 20.48 28.672 10.24 45.056-10.24 14.336-28.672 20.48-45.056 10.24-124.928-77.824-239.616-180.224-329.728-272.384-61.44 126.976-12.288 315.392 88.064 415.744 90.112 90.112 413.696 151.552 567.296 165.888 0 0 2.048 0 2.048 0 10.24 0 16.384-4.096 18.432-8.192 4.096-6.144 8.192-12.288 8.192-22.528z" />
<glyph unicode="&#xe90b;" glyph-name="like" horiz-adv-x="1169" d="M254.831 667.763h-219.763c-21.041 0-37.406-16.365-37.406-37.406v-656.95c0-21.041 16.365-37.406 37.406-37.406h219.763c21.041 0 37.406 16.365 37.406 37.406v656.95c0 21.041-16.365 37.406-37.406 37.406zM219.763 10.813h-147.288v584.475h147.288v-584.475zM1033.352 595.288h-215.087c-18.703 0-28.055 11.689-30.393 18.703-2.338 4.676-9.352 18.703 0 37.406l77.151 137.936c16.365 30.393 18.703 65.461 4.676 95.854s-39.744 53.772-74.813 63.123l-53.772 14.027c-14.027 2.338-28.055 0-35.068-11.689l-292.237-322.63c-30.393-32.731-46.758-77.151-46.758-121.571v-308.603c0-100.53 81.826-182.356 182.356-182.356h362.374c81.826 0 154.301 56.11 175.342 133.26l77.151 285.224c2.338 9.352 2.338 21.041 2.338 30.393 2.338 70.137-58.447 130.922-133.26 130.922v0zM1094.137 448l-77.151-282.886c-14.027-46.758-56.11-79.489-105.205-79.489h-362.374c-60.785 0-109.881 49.096-109.881 109.881v308.603c0 28.055 9.352 53.772 28.055 72.475l275.872 306.265 32.731-7.014c11.689-2.338 21.041-9.352 25.717-21.041 4.676-9.352 4.676-23.379-2.338-32.731l-77.151-137.936c-18.703-35.068-18.703-74.813 2.338-109.881 21.041-32.731 56.11-53.772 93.516-53.772h215.087c35.068 0 60.785-28.055 60.785-60.785 2.338-4.676 2.338-9.352 0-11.689v0z" />
<glyph unicode="&#xe90c;" horiz-adv-x="1249" d="M624.39 130.81c-12.488 0-24.976-9.99-24.976-24.976 0-12.488 9.99-24.976 24.976-24.976s24.976 9.99 24.976 24.976c0 14.985-12.488 24.976-24.976 24.976z" />
<glyph unicode="&#xe90d;" horiz-adv-x="1249" d="M1143.883 922.537c-59.941 24.976-137.366 37.463-219.785 37.463s-159.844-12.488-219.785-37.463c-34.966-14.985-62.439-32.468-79.922-52.449-17.483 19.98-44.956 37.463-79.922 52.449-59.941 24.976-137.366 37.463-219.785 37.463s-159.844-12.488-219.785-37.463c-67.434-27.473-104.898-64.937-104.898-109.893v-584.429c0-42.459 37.463-82.42 104.898-109.893 54.946-22.478 127.376-34.966 202.302-37.463v0c0-82.42 137.366-147.356 317.19-147.356s317.19 62.439 317.19 147.356v0c74.927 2.498 147.356 14.985 202.302 37.463 67.434 27.473 104.898 64.937 104.898 109.893v584.429c0 44.956-37.463 82.42-104.898 109.893zM1198.829 375.571c0-19.98-27.473-44.956-74.927-62.439-49.951-19.98-114.888-32.468-184.82-32.468v97.405c0 0 0 0 0 0 74.927 2.498 147.356 14.985 202.302 37.463 22.478 9.99 39.961 19.98 54.946 29.971l2.498-69.932zM599.415 667.785c0-19.98-27.473-44.956-74.927-62.439-52.449-22.478-127.376-34.966-202.302-34.966s-147.356 12.488-202.302 34.966c-44.956 17.483-74.927 42.459-74.927 62.439v67.434c14.985-9.99 34.966-19.98 54.946-29.971 59.941-24.976 137.366-37.463 219.785-37.463s159.844 12.488 219.785 37.463c22.478 9.99 39.961 19.98 54.946 29.971v-67.434zM104.898 557.893c59.941-24.976 137.366-37.463 219.785-37.463s159.844 12.488 219.785 37.463c22.478 9.99 39.961 19.98 54.946 29.971v-67.434c-62.439-2.498-122.38-12.488-172.332-29.971s-84.917-39.961-102.4-67.434c-74.927 0-147.356 12.488-199.805 34.966-44.956 17.483-74.927 42.459-74.927 62.439v67.434c14.985-9.99 32.468-19.98 54.946-29.971zM49.951 443.005c14.985-9.99 34.966-19.98 54.946-29.971 54.946-22.478 127.376-34.966 202.302-37.463 0 0 0 0 0 0v-97.405c-67.434 2.498-134.868 14.985-184.82 32.468-44.956 17.483-74.927 42.459-74.927 62.439v69.932zM359.649 388.059c17.483 42.459 122.38 84.917 264.741 84.917s247.259-42.459 264.741-84.917c2.498-4.995 2.498-7.493 2.498-12.488 0-22.478-27.473-44.956-69.932-64.937-52.449-22.478-122.38-34.966-197.307-34.966s-144.859 12.488-197.307 34.966c-44.956 17.483-69.932 42.459-69.932 64.937 0 2.498 0 7.493 2.498 12.488zM1198.829 520.429c0-19.98-27.473-44.956-74.927-62.439-52.449-22.478-127.376-34.966-199.805-34.966-19.98 27.473-54.946 49.951-102.4 67.434-49.951 17.483-109.893 27.473-172.332 29.971v67.434c14.985-9.99 34.966-19.98 54.946-29.971 59.941-24.976 137.366-37.463 219.785-37.463s159.844 12.488 219.785 37.463c22.478 9.99 39.961 19.98 54.946 29.971v-67.434zM1198.829 667.785c0-19.98-27.473-44.956-74.927-62.439-52.449-22.478-127.376-34.966-202.302-34.966s-147.356 12.488-202.302 34.966c-44.956 17.483-74.927 42.459-74.927 62.439v67.434c14.985-9.99 34.966-19.98 54.946-29.971 59.941-24.976 137.366-37.463 219.785-37.463s159.844 12.488 219.785 37.463c22.478 9.99 39.961 19.98 54.946 29.971v-67.434zM721.795 877.58c52.449 22.478 127.376 34.966 202.302 34.966s147.356-12.488 202.302-34.966c44.956-17.483 74.927-42.459 74.927-62.439s-27.473-44.956-74.927-62.439c-52.449-22.478-127.376-34.966-202.302-34.966s-147.356 12.488-202.302 34.966c-44.956 17.483-74.927 42.459-74.927 62.439s29.971 44.956 74.927 62.439zM122.38 877.58c52.449 22.478 127.376 34.966 202.302 34.966s147.356-12.488 202.302-34.966c44.956-17.483 74.927-42.459 74.927-62.439s-27.473-44.956-74.927-62.439c-52.449-22.478-127.376-34.966-202.302-34.966s-147.356 12.488-202.302 34.966c-44.956 17.483-74.927 42.459-74.927 62.439s29.971 44.956 74.927 62.439zM122.38 165.776c-44.956 17.483-74.927 42.459-74.927 62.439v67.434c14.985-9.99 34.966-19.98 54.946-29.971 54.946-22.478 127.376-34.966 202.302-37.463v-97.405c-64.937 2.498-132.371 14.985-182.322 34.966zM821.698 18.42c-52.449-22.478-122.38-34.966-197.307-34.966s-144.859 12.488-197.307 34.966c-44.956 17.483-69.932 42.459-69.932 64.937v64.937c4.995-4.995 12.488-7.493 17.483-12.488 37.463-22.478 89.912-37.463 149.854-47.454 0 0 2.498 0 2.498 0 12.488 0 22.478 7.493 24.976 19.98s-7.493 24.976-19.98 27.473c-112.39 17.483-174.829 59.941-174.829 89.912v64.937c54.946-39.961 152.351-64.937 267.239-64.937s212.293 24.976 267.239 64.937v-64.937c0-32.468-59.941-74.927-174.829-89.912-12.488-2.498-22.478-14.985-19.98-27.473s12.488-19.98 24.976-19.98c0 0 2.498 0 2.498 0 59.941 9.99 112.39 24.976 149.854 47.454 7.493 4.995 12.488 7.493 17.483 12.488v-64.937c0-22.478-24.976-47.454-69.932-64.937zM1126.4 165.776c-49.951-19.98-114.888-32.468-184.82-32.468v97.405c74.927 2.498 147.356 14.985 202.302 37.463 22.478 9.99 39.961 19.98 54.946 29.971v-67.434c0-22.478-27.473-47.454-72.429-64.937z" />
<glyph unicode="&#xe90e;" glyph-name="nuclear-plant" horiz-adv-x="1115" d="M1028.462 0.697c-51.312 165.089-78.083 339.102-78.083 510.885v33.464h-348.026c0 11.155 0 22.309 0 33.464v33.464h-414.954v-33.464c0-196.322-33.464-390.414-100.392-577.813h-87.007v-64.697h1115.468v64.697h-87.007zM156.166 0.697c60.235 176.244 91.468 359.181 95.93 544.349h283.329c4.462-185.168 35.695-368.105 95.93-544.349h-475.19zM700.514 0.697c-55.773 153.935-87.007 316.793-95.93 479.651h281.098c2.231-162.858 29.002-323.486 73.621-479.651h-258.789zM1059.695 906.458c-20.078-20.078-33.464-33.464-64.697-33.464s-44.619 13.386-64.697 33.464c-24.54 24.54-53.542 53.542-111.547 53.542s-87.007-29.002-111.547-53.542c-20.078-20.078-33.464-33.464-64.697-33.464s-44.619 13.386-64.697 33.464c-24.54 24.54-53.542 53.542-109.316 53.542-120.471 0-218.632-98.161-218.632-218.632v-64.697h64.697v64.697c0 84.776 69.159 151.704 151.704 151.704 31.233 0 44.619-13.386 64.697-33.464 24.54-24.54 53.542-53.542 109.316-53.542 58.004 0 87.007 29.002 111.547 53.542 20.078 20.078 33.464 33.464 64.697 33.464s44.619-13.386 64.697-33.464c24.54-24.54 53.542-53.542 111.547-53.542s87.007 29.002 111.547 53.542c4.462 4.462 6.693 6.693 8.924 8.924v78.083c-22.309-8.924-40.157-26.771-53.542-40.157zM1082.004 710.135c-24.54 24.54-53.542 53.542-111.547 53.542-84.776 0-151.704-69.159-151.704-151.704h64.697c0 49.081 40.157 87.007 87.007 87.007 31.233 0 44.619-13.386 64.697-33.464 20.078-17.847 42.388-42.388 80.314-49.081v69.159c-11.155 2.231-22.309 13.386-33.464 24.54z" />
<glyph unicode="&#xe90f;" glyph-name="phone" horiz-adv-x="613" d="M496.671 960c61.317 0 116.503-49.054 116.503-116.503v-790.994c0-61.317-49.054-116.503-116.503-116.503h-386.299c-61.317 0-116.503 49.054-116.503 116.503v790.994c0 61.317 49.054 116.503 116.503 116.503h386.299zM496.671 886.419h-386.299c-18.395 0-36.79-18.395-36.79-36.79v-790.994c0-18.395 18.395-36.79 36.79-36.79h386.299c18.395 0 36.79 18.395 36.79 36.79v790.994c0 18.395-12.263 36.79-36.79 36.79zM367.904 169.006c18.395 0 36.79-18.395 36.79-36.79s-18.395-36.79-36.79-36.79h-128.766c-18.395 0-36.79 18.395-36.79 36.79s18.395 36.79 36.79 36.79h128.766z" />
<glyph unicode="&#xe910;" glyph-name="photo" horiz-adv-x="1104" d="M657.907 960c42.446 0 84.891-21.223 106.114-63.668l42.446-74.28h116.725c100.808 0 180.394-79.585 180.394-180.394v-525.264c0-100.808-79.585-180.394-180.394-180.394h-748.104c-100.808 0-180.394 79.585-180.394 180.394v525.264c0 100.808 79.585 180.394 180.394 180.394h116.725l47.751 79.585c21.223 37.14 63.668 58.363 106.114 58.363h212.228zM657.907 875.109h-212.228c-10.611 0-26.528-5.306-31.834-15.917l-5.306-5.306-58.363-100.808c-5.306-10.611-21.223-21.223-37.14-21.223h-137.948c-53.057 0-95.503-42.446-95.503-95.503v-525.264c0-53.057 42.446-95.503 95.503-95.503h748.104c53.057 0 95.503 42.446 95.503 95.503v525.264c0 53.057-42.446 95.503-95.503 95.503h-137.948c-15.917 0-26.528 5.306-37.14 21.223l-58.363 95.503c-5.306 21.223-15.917 26.528-31.834 26.528zM551.793 657.575c137.948 0 249.368-111.42 249.368-249.368s-111.42-249.368-249.368-249.368c-137.948 0-249.368 111.42-249.368 249.368s111.42 249.368 249.368 249.368zM551.793 572.684c-90.197 0-164.477-74.28-164.477-164.477s74.28-164.477 164.477-164.477 164.477 74.28 164.477 164.477-74.28 164.477-164.477 164.477z" />
<glyph unicode="&#xe911;" glyph-name="star" d="M1024 589.169c-4.214 8.428-8.428 16.856-16.856 25.284-8.428 4.214-16.856 8.428-29.498 12.642l-290.765 25.284-126.42 278.123c-4.214 8.428-12.642 16.856-16.856 21.070s-16.856 8.428-29.498 8.428c-8.428 0-21.070-4.214-29.498-8.428s-16.856-12.642-16.856-21.070l-126.42-278.123-290.765-25.284c-8.428 0-21.070-4.214-25.284-8.428-8.428-4.214-12.642-12.642-16.856-25.284-4.214-8.428-4.214-21.070 0-29.498s8.428-16.856 12.642-25.284l214.914-210.7-75.852-328.691c-4.214-8.428 0-21.070 4.214-29.498s8.428-16.856 16.856-25.284c8.428-4.214 16.856-8.428 29.498-8.428 8.428 0 21.070 4.214 29.498 8.428l278.123 185.416 278.123-185.416c8.428-4.214 21.070-8.428 29.498-8.428s21.070 4.214 29.498 8.428c8.428 4.214 16.856 16.856 16.856 25.284 4.214 8.428 4.214 21.070 0 29.498l-92.708 328.691 231.77 210.7c12.642 12.642 21.070 33.712 12.642 50.568z" />
<glyph unicode="&#xe912;" glyph-name="star-border" d="M231.77 327.901l-75.852-328.691c-4.214-8.428 0-21.070 0-29.498s8.428-16.856 16.856-25.284c8.428-4.214 16.856-8.428 29.498-8.428 8.428 0 21.070 4.214 29.498 8.428l278.123 185.416 278.123-185.416c8.428-4.214 21.070-8.428 29.498-8.428s21.070 4.214 29.498 8.428c8.428 4.214 16.856 16.856 16.856 25.284s4.214 21.070 0 29.498l-92.708 328.691 231.77 210.7c8.428 8.428 12.642 16.856 16.856 25.284s4.214 21.070 0 29.498c-4.214 8.428-8.428 16.856-16.856 25.284-8.428 4.214-16.856 8.428-29.498 12.642l-290.765 25.284-126.42 278.123c-4.214 8.428-12.642 16.856-16.856 21.070-8.428 4.214-16.856 8.428-29.498 8.428-8.428 0-21.070-4.214-29.498-8.428s-16.856-12.642-16.856-21.070l-126.42-278.123-290.765-25.284c-8.428 0-21.070-4.214-25.284-8.428-8.428-4.214-12.642-12.642-16.856-25.284-4.214-8.428-4.214-21.070 0-29.498s8.428-16.856 12.642-25.284l214.914-214.914zM379.259 547.029c8.428 0 16.856 4.214 25.284 8.428s12.642 12.642 16.856 21.070l92.708 202.272 92.708-202.272c4.214-8.428 8.428-16.856 16.856-21.070s16.856-8.428 25.284-8.428l202.272-16.856-168.56-151.704c-12.642-12.642-21.070-33.712-16.856-50.568l63.21-223.342-189.63 126.42c-8.428 4.214-16.856 8.428-29.498 8.428-8.428 0-21.070-4.214-29.498-8.428l-198.058-134.848 54.782 231.77c0 8.428 0 16.856 0 25.284-4.214 8.428-8.428 16.856-12.642 21.070l-155.918 151.704 210.7 21.070z" />
<glyph unicode="&#xe913;" glyph-name="telegram" d="M512-64c282.837 0 512 229.163 512 512s-229.163 512-512 512-512-229.163-512-512 229.163-512 512-512zM234.283 459.093l493.653 190.336c22.912 8.277 42.923-5.589 35.499-40.235l0.043 0.043-84.053-395.989c-6.229-28.075-22.912-34.901-46.251-21.675l-128 94.336-61.739-59.477c-6.827-6.827-12.587-12.587-25.813-12.587l9.088 130.261 237.227 214.315c10.325 9.088-2.304 14.208-15.915 5.163l-293.163-184.576-126.379 39.424c-27.435 8.704-28.032 27.435 5.803 40.661z" />
<glyph unicode="&#xe914;" glyph-name="viber" horiz-adv-x="971" d="M864.256 857.6c-24.576 20.48-131.072 98.304-356.352 98.304 0 0-270.336 16.384-401.408-102.4-73.728-73.728-98.304-180.224-102.4-315.392 0-131.072-4.096-380.928 233.472-450.56v-102.4c0 0 0-40.96 24.576-53.248 32.768-8.192 53.248 20.48 86.016 57.344 16.384 20.48 40.96 45.056 61.44 69.632 163.84-12.288 290.816 16.384 307.2 20.48 32.768 12.288 221.184 36.864 249.856 282.624 28.672 262.144-20.48 421.888-102.4 495.616zM888.832 386.56c-24.576-208.896-176.128-221.184-204.8-233.472-12.288 0-122.88-28.672-262.144-20.48 0 0-102.4-122.88-135.168-159.744-8.192-8.192-20.48-8.192-20.48 12.288 0 12.288 0 172.032 0 172.032-200.704 57.344-188.416 266.24-188.416 376.832s20.48 200.704 86.016 262.144c110.592 102.4 339.968 86.016 339.968 86.016 192.512 0 286.72-61.44 307.2-77.824 69.632-57.344 106.496-204.8 77.824-417.792zM610.304 546.304c0 57.344-32.768 90.112-86.016 94.208-16.384 0-20.48-24.576 0-24.576 40.96-4.096 61.44-24.576 65.536-69.632-4.096-20.48 24.576-16.384 20.48 0zM655.36 521.728c0-16.384 24.576-16.384 24.576 0 0 94.208-61.44 176.128-176.128 184.32-16.384 0-20.48-24.576 0-24.576 98.304-4.096 151.552-73.728 151.552-159.744zM745.472 497.152c0 172.032-118.784 274.432-266.24 278.528-16.384 0-16.384-24.576 0-24.576 131.072 0 241.664-90.112 241.664-253.952 0-16.384 24.576-16.384 24.576 0zM724.992 300.544c8.192 16.384 8.192 32.768-4.096 45.056-24.576 24.576-61.44 49.152-90.112 65.536-20.48 12.288-45.056 4.096-53.248-8.192l-16.384-24.576c-8.192-12.288-28.672-8.192-28.672-8.192-135.168 32.768-172.032 167.936-172.032 167.936s0 16.384 12.288 28.672l24.576 20.48c12.288 8.192 16.384 32.768 4.096 53.248-4.096 12.288-20.48 32.768-28.672 45.056-8.192 16.384-36.864 45.056-36.864 45.056-8.192 16.384-28.672 16.384-45.056 8.192v0c-36.864-20.48-81.92-61.44-65.536-102.4 0 0 8.192-36.864 53.248-110.592 20.48-36.864 40.96-69.632 61.44-94.208 20.48-28.672 53.248-57.344 86.016-86.016 65.536-49.152 163.84-102.4 204.8-114.688v0c28.672-12.288 73.728 28.672 94.208 69.632v0z" />
<glyph unicode="&#xe915;" glyph-name="whatsapp" d="M869.699 810.374c-93.516 98.192-219.763 149.626-360.037 149.626-280.548 0-504.986-229.114-504.986-504.986 0-93.516 23.379-177.68 70.137-252.493l-70.137-261.845 266.521 70.137c74.813-37.406 158.977-60.785 243.142-60.785 280.548 0 514.338 229.114 514.338 504.986-4.676 135.598-65.461 257.169-158.977 355.361zM509.662 29.516c-74.813 0-149.626 18.703-215.087 60.785l-14.027 9.352-158.977-42.082 42.082 154.301-9.352 14.027c-42.082 70.137-65.461 144.95-65.461 224.438 0 229.114 191.708 420.822 420.822 420.822 112.219 0 215.087-42.082 294.575-121.571s126.247-187.032 126.247-299.251c4.676-229.114-187.032-420.822-420.822-420.822zM743.452 347.47c-14.027 4.676-74.813 37.406-88.84 42.082-9.352 4.676-18.703 4.676-28.055-4.676-4.676-9.352-32.731-42.082-37.406-51.434-9.352-4.676-14.027-9.352-28.055 0-74.813 37.406-121.571 65.461-173.005 149.626-14.027 23.379 14.027 18.703 37.406 70.137 4.676 9.352 0 14.027 0 23.379s-28.055 70.137-37.406 93.516c-9.352 23.379-18.703 23.379-28.055 23.379-4.676 0-14.027 0-23.379 0s-23.379 0-32.731-14.027-42.082-42.082-42.082-102.868c0-65.461 42.082-121.571 51.434-130.922 4.676-4.676 88.84-135.598 215.087-191.708 79.489-37.406 112.219-37.406 154.301-32.731 23.379 0 74.813 28.055 84.164 60.785 9.352 28.055 9.352 56.11 4.676 60.785-9.352-4.676-18.703-4.676-28.055 4.676z" />
<glyph unicode="&#xe916;" glyph-name="full" d="M969.387 277.333c31.858 0 59.164-27.307 59.164-59.164s-27.307-59.164-59.164-59.164h-172.942v-172.942c0-31.858-27.307-59.164-59.164-59.164s-59.164 27.307-59.164 59.164v227.556c0 31.858 27.307 59.164 59.164 59.164h232.107zM59.164 277.333h227.556c27.307 0 54.613-22.756 54.613-50.062v-232.107c0-31.858-27.307-59.164-59.164-59.164-27.307 0-54.613 22.756-54.613 50.062v177.493h-172.942c-31.858 0-59.164 27.307-59.164 59.164 0 27.307 22.756 54.613 50.062 54.613h13.653zM741.831 960c27.307 0 54.613-22.756 54.613-50.062v-177.493h172.942c31.858 0 59.164-27.307 59.164-59.164 0-27.307-22.756-54.613-50.062-54.613h-232.107c-27.307 0-54.613 22.756-54.613 50.062v232.107c-9.102 31.858 18.204 59.164 50.062 59.164zM286.72 960c31.858 0 59.164-27.307 59.164-59.164v-227.556c0-31.858-27.307-59.164-59.164-59.164h-227.556c-31.858 0-59.164 27.307-59.164 59.164s27.307 59.164 59.164 59.164h172.942v172.942c-4.551 27.307 22.756 54.613 54.613 54.613z" />
<glyph unicode="&#xe917;" glyph-name="delivery-truck" horiz-adv-x="1518" d="M0 162.245c0-15.476 11.054-27.636 26.53-27.636h42.375c28.373 62.641 93.225 110.175 168.026 110.175 75.169 0 139.653-47.534 168.026-110.175h549.401v224.772h-954.358v-197.136zM236.931 185.091c-68.905 0-124.546-55.64-124.546-124.546s55.64-124.546 124.546-124.546c68.905 0 124.546 55.64 124.546 124.546s-55.64 124.546-124.546 124.546zM1501.916 450.764l-118.65 52.324h-369.952v-368.478h71.853c28.373 62.641 93.225 110.175 168.026 110.175s139.653-47.534 168.026-110.175h70.379c15.476 0 26.53 12.16 26.53 27.636v261.619c0.368 11.423-5.896 22.109-16.213 26.899zM1261.3 715.331c-14.739 28.373-44.217 46.060-76.275 45.323h-171.711v-198.978h327.577l-79.591 153.655zM869.608 960h-785.595c-47.534 0-84.013-39.059-84.013-86.224v-455.439h954.358v455.070c0 0 0 0.368 0 0.368 0.368 47.165-37.585 85.487-84.75 86.224zM1253.193 185.091c-68.905 0-124.546-55.64-124.546-124.546s55.64-124.546 124.546-124.546c68.905 0 124.546 55.64 124.546 124.546v0c0 68.905-55.64 124.546-124.546 124.546z" />
<glyph unicode="&#xe918;" glyph-name="bag" horiz-adv-x="968" d="M138.2-45.8c179.8-18 325.8-18.2 327.4-18.2h36.6c1.4 0 147.6 0.2 327.4 18.2 52.4 5.2 90.4 25 113 58.6 36.4 54.2 25 130.8 17.6 155.6-55.6 186.8-93 592.4-106.4 758-1.4 19-17.4 33.6-36.4 33.4h-41v-2.8c-8-274.2-157.2-399.2-292.6-399.2s-284.4 124.8-292.2 398.8v3.4h-41c-19 0.2-35-14.4-36.4-33.4-13.4-165.6-50.8-571.2-106.4-758-7.4-25-18.6-101.4 17.6-155.6 22.4-33.8 60.4-53.6 112.8-58.8v0zM822 27c44.6 4.4 55.8 21.2 59.4 26.6 17.6 26.2 14 75 8.4 94-2.6 9.6 2.8 19.6 12.4 22.4s19.6-2.4 22.6-12c7.2-23.8 13.2-85.6-13-124.8-6-9-24.6-36.6-86.2-42.6-0.6 0-1.2 0-1.8 0-10-0.6-18.6 7.2-19.2 17.4-0.4 10 7.4 18.6 17.4 19v0zM42.6 158c3 9.4 13.2 14.8 22.6 12s15-12.8 12.4-22.4c-5.6-19-9.2-67.8 8.2-94 3.6-5.4 15-22.2 59.4-26.6 10-0.6 17.8-9.2 17.4-19.2-0.6-10-9.2-17.8-19.2-17.4-0.6 0-1.2 0-1.8 0-61.6 6.2-80.2 33.6-86.2 42.6-26 39.4-19.8 101.2-12.8 125v0zM483.8 594.4c83 0 171.8 56.4 219.8 176.2-57.2-60.2-136.8-93.8-219.8-93-83-0.8-162.6 32.8-219.8 93 48-120 136.8-176.2 219.8-176.2v0z" />
<glyph unicode="&#xe919;" glyph-name="sack" horiz-adv-x="738" d="M205.361 822.532c10.661-7.014 21.883-13.186 33.385-18.516 3.928 3.086 7.855 5.611 12.344 7.855 6.172 3.086 13.747 2.525 19.358-1.964 5.611-4.208 8.136-11.222 6.733-18.236 0 0-0.281-1.122-0.561-2.805 21.883-7.014 44.327-11.502 67.332-13.186l-28.896 86.97c-3.086 9.539 1.964 19.919 11.502 23.285 9.539 3.086 19.919-1.964 23.285-11.502l19.077-57.512 19.358 57.793c3.086 9.539 13.466 14.869 23.005 11.502 9.539-3.086 14.869-13.466 11.502-23.285l-28.896-86.689c49.096 5.050 96.508 21.322 138.31 47.413-0.561 24.408 7.014 77.431 73.504 131.858-28.055 5.892-57.232 1.964-82.481-11.502-45.729-22.724-64.526-15.15-88.373-1.122-19.638 12.625-42.643 18.797-65.929 17.394-23.285 0.842-46.29-5.33-65.929-17.955-23.847-14.027-42.924-21.602-88.373 1.122-25.249 13.466-54.426 17.675-82.481 11.502 67.332-54.987 74.065-108.292 73.223-132.419zM690.428 102.645c50.218 111.658 51.901 278.584 44.327 398.939-15.43 246.041-150.654 287.001-179.27 292.892-56.39-35.91-121.477-55.268-188.248-55.829-26.372 0-52.462 3.086-77.992 9.258-5.050 1.122-9.539 2.805-14.308 3.928-0.281-33.105 11.783-65.087 33.946-89.775 7.014-7.294 6.733-18.516-0.281-25.53s-18.516-7.014-25.53-0.281c-28.616 31.141-44.607 71.82-44.607 114.183-17.675-29.458-23.285-64.807-15.711-98.192 1.683-10.1-5.050-19.358-15.15-21.041-1.122-0.281-1.964-0.281-3.086-0.281-8.978 0-16.552 6.453-17.955 15.15-10.1 45.168-0.842 92.581 25.53 130.455-10.38 5.33-20.48 11.222-30.299 17.675-30.86-6.172-162.998-47.413-178.428-292.612-7.575-120.355-5.892-287.562 44.327-398.939 3.367-7.855 4.208-16.552 1.683-24.688l-23.566-131.577c-0.281-0.842-0.281-1.683-0.561-2.525l120.636 25.53c2.805 0.842 5.611 1.122 8.416 1.122 7.855 0 15.15-2.525 21.602-7.014 31.982-22.724 122.88-27.494 193.017-27.494 70.418 0 161.035 4.769 193.298 27.494 8.978 6.453 20.48 8.697 31.141 5.611l118.672-24.127-23.566 132.98c-2.244 8.136-1.683 16.833 1.964 24.688zM139.432 120.881c-4.208-2.244-9.258-2.525-14.027-1.122-4.489 1.403-8.416 4.769-10.661 9.258-75.467 150.654-21.883 351.807-19.638 360.224 1.683 6.172 6.733 11.222 12.905 12.905 6.453 1.683 12.905-0.281 17.675-4.769s6.453-11.502 4.769-17.675c-0.561-1.964-52.182-196.103 17.113-334.413 2.244-4.208 2.525-9.258 1.122-14.027-1.403-4.489-4.769-8.136-9.258-10.38v0zM621.694 129.017c-4.489-8.978-15.43-12.625-24.408-8.136s-12.625 15.43-8.136 24.408c69.295 138.31 17.394 332.449 17.113 334.413-1.683 6.172 0 12.905 4.769 17.675 4.489 4.769 11.222 6.453 17.675 4.769 6.172-1.683 11.222-6.453 12.905-12.905 1.964-8.416 55.268-209.569-19.919-360.224v0z" />
<glyph unicode="&#xe91a;" glyph-name="ink" d="M512 960c-282.334 0-512-229.688-512-512s229.666-512 512-512 512 229.688 512 512-229.666 512-512 512zM512 21.334c-235.25 0-426.666 191.396-426.666 426.666 0 102.3 36.252 196.25 96.5 269.834l181.328-181.328c-35.606-63.99-64.494-129.406-64.494-173.838 0-117.626 95.708-213.334 213.334-213.334 65.188 0 122.916 30.020 162.080 76.252l107.752-107.752c-73.586-60.25-167.54-96.5-269.834-96.5zM384 362.666c0 11.792 9.542 21.334 21.334 21.334s21.334-9.542 21.334-21.334c0-47.062 38.292-85.334 85.334-85.334 11.792 0 21.334-9.542 21.334-21.334s-9.542-21.334-21.334-21.334c-70.586 0.002-128.002 57.42-128.002 128.002zM842.166 178.166l-126.014 126.014c5.38 18.71 9.18 38.070 9.18 58.486 0 109.958-176.166 348.604-196.25 375.438-8.084 10.792-26.084 10.792-34.166 0-8.678-11.594-46.512-62.8-86.67-126.018l-166.080 166.080c73.586 60.25 167.54 96.5 269.834 96.5 235.25 0 426.666-191.396 426.666-426.666 0-102.3-36.252-196.25-96.5-269.834z" />
</font>
</defs>
</svg>
