<svg width="176" height="60" viewBox="0 0 176 60" fill="none" xmlns="http://www.w3.org/2000/svg">
<path d="M57.2988 36.6797H67.0156V40H53.5879V21.4453H66.7715V24.7656H57.2988V28.8672H64.5742V32.0898H57.2988V36.6797ZM76.959 40.2441C74.2572 40.2441 72.0924 39.3815 70.4648 37.6562C68.8372 35.8984 68.0234 33.5872 68.0234 30.7227C68.0234 28.8672 68.3978 27.2233 69.1465 25.791C69.8952 24.3262 70.9368 23.2031 72.2715 22.4219C73.6387 21.6081 75.2012 21.2012 76.959 21.2012C78.9447 21.2012 80.6374 21.6732 82.0371 22.6172C83.4368 23.5612 84.3971 24.8958 84.918 26.6211L81.4023 27.8906C80.6862 25.5469 79.1888 24.375 76.9102 24.375C75.3802 24.375 74.1432 24.9447 73.1992 26.084C72.2878 27.2233 71.832 28.7695 71.832 30.7227C71.832 32.6758 72.2878 34.222 73.1992 35.3613C74.1107 36.5007 75.3477 37.0703 76.9102 37.0703C79.1888 37.0703 80.6862 35.8984 81.4023 33.5547L84.918 34.8242C84.3646 36.5169 83.388 37.8516 81.9883 38.8281C80.5885 39.7721 78.9121 40.2441 76.959 40.2441ZM95.0566 40.2441C92.3223 40.2441 90.125 39.3815 88.4648 37.6562C86.8047 35.8984 85.9746 33.5872 85.9746 30.7227C85.9746 28.8672 86.349 27.2233 87.0977 25.791C87.8789 24.3262 88.9531 23.2031 90.3203 22.4219C91.6875 21.6081 93.2663 21.2012 95.0566 21.2012C97.8236 21.2012 100.037 22.0801 101.697 23.8379C103.357 25.5632 104.188 27.8581 104.188 30.7227C104.188 32.5781 103.797 34.2383 103.016 35.7031C102.267 37.1354 101.193 38.2585 99.793 39.0723C98.4258 39.8535 96.847 40.2441 95.0566 40.2441ZM95.0566 36.9727C96.6517 36.9727 97.9212 36.403 98.8652 35.2637C99.8418 34.1243 100.33 32.6107 100.33 30.7227C100.33 28.8346 99.8418 27.321 98.8652 26.1816C97.9212 25.0423 96.6517 24.4727 95.0566 24.4727C93.4616 24.4727 92.1758 25.0423 91.1992 26.1816C90.2552 27.321 89.7832 28.8346 89.7832 30.7227C89.7832 32.6107 90.2552 34.1243 91.1992 35.2637C92.1758 36.403 93.4616 36.9727 95.0566 36.9727ZM121.699 21.4453V24.8633H115.303V40H111.543V24.8633H105.146V21.4453H121.699ZM130.812 40.2441C128.078 40.2441 125.881 39.3815 124.221 37.6562C122.561 35.8984 121.73 33.5872 121.73 30.7227C121.73 28.8672 122.105 27.2233 122.854 25.791C123.635 24.3262 124.709 23.2031 126.076 22.4219C127.443 21.6081 129.022 21.2012 130.812 21.2012C133.579 21.2012 135.793 22.0801 137.453 23.8379C139.113 25.5632 139.943 27.8581 139.943 30.7227C139.943 32.5781 139.553 34.2383 138.771 35.7031C138.023 37.1354 136.949 38.2585 135.549 39.0723C134.182 39.8535 132.603 40.2441 130.812 40.2441ZM130.812 36.9727C132.408 36.9727 133.677 36.403 134.621 35.2637C135.598 34.1243 136.086 32.6107 136.086 30.7227C136.086 28.8346 135.598 27.321 134.621 26.1816C133.677 25.0423 132.408 24.4727 130.812 24.4727C129.217 24.4727 127.932 25.0423 126.955 26.1816C126.011 27.321 125.539 28.8346 125.539 30.7227C125.539 32.6107 126.011 34.1243 126.955 35.2637C127.932 36.403 129.217 36.9727 130.812 36.9727ZM150.521 33.0176H146.713V40H143.002V21.4453H151.01C153.126 21.4453 154.786 21.9661 155.99 23.0078C157.227 24.0169 157.846 25.4167 157.846 27.207C157.846 28.4766 157.536 29.5671 156.918 30.4785C156.299 31.3574 155.421 32.0247 154.281 32.4805L158.822 40H154.623L150.521 33.0176ZM146.713 30.0391H150.717C151.824 30.0391 152.654 29.8112 153.207 29.3555C153.76 28.8672 154.037 28.1836 154.037 27.3047C154.037 25.5143 152.93 24.6191 150.717 24.6191H146.713V30.0391ZM174.674 24.7656H165.25V29.1602H172.477V32.334H165.25V40H161.49V21.4453H174.674V24.7656Z" fill="#1C1C1C"/>
<g clip-path="url(#clip0)">
<path d="M4.37358 29.3963C7.52099 24.8562 11.7648 20.6946 15.022 15.8527C15.0159 15.8619 15.0113 15.8696 15.0068 15.8787C18.0017 11.4337 20.167 6.41401 19.8865 0C42.0434 29.9586 18.2335 42.779 13.1083 53.3194C22.8295 55.1903 36.5949 43.5175 31.6343 29.2584C36.8267 37.4789 38.6154 46.8318 30.0256 55.3726C28.1682 57.219 25.6567 58.4662 23.075 59.1956C23.075 59.1956 23.075 59.1956 23.0766 59.1956C18.7992 60.406 14.5813 60.141 12.634 59.1358C12.6371 59.1435 12.6401 59.1496 12.6432 59.1573C9.84038 57.6786 8.10046 54.1728 7.59724 51.0195C6.90798 46.6878 8.50913 43.2463 10.9475 39.5306C15.417 32.7182 22.4651 25.6086 21.6813 14.7847C21.5944 23.5507 16.0727 30.5087 10.6913 36.7526C10.0615 37.4835 9.24566 38.4213 8.5747 39.1981C5.15891 43.1544 2.29666 51.6584 5.98084 55.3236C-1.03831 48.6154 -2.26586 38.9668 4.37358 29.3963Z" fill="#F8D455"/>
</g>
<defs>
<clipPath id="clip0">
<rect width="36" height="60" fill="white"/>
</clipPath>
</defs>
</svg>
