<svg width="31" height="47" viewBox="0 0 31 47" fill="none" xmlns="http://www.w3.org/2000/svg">
<path d="M3.76579 23.0267C6.47604 19.4704 10.1304 16.2105 12.9352 12.4177C12.9299 12.4249 12.926 12.4309 12.9221 12.4381C15.501 8.95623 17.3656 5.02423 17.124 0C36.2034 23.4672 15.7006 33.5097 11.2872 41.7662C19.6583 43.2317 31.5117 34.0882 27.2401 22.9187C31.7113 29.358 33.2515 36.6843 25.8548 43.3745C24.2555 44.8208 22.0928 45.7978 19.8697 46.3691C19.8697 46.3691 19.8697 46.3691 19.871 46.3691C16.1877 47.3173 12.5557 47.1097 10.8789 46.3223C10.8815 46.3283 10.8841 46.3331 10.8868 46.3391C8.47327 45.1809 6.97502 42.4347 6.54169 39.9646C5.94817 36.5715 7.32693 33.8757 9.42658 30.9651C13.2753 25.6289 19.3444 20.0597 18.6695 11.5812C18.5947 18.4478 13.8399 23.8981 9.20598 28.7891C8.66367 29.3616 7.96116 30.0962 7.38339 30.7047C4.44204 33.8037 1.97735 40.4651 5.14981 43.3361C-0.894409 38.0814 -1.95146 30.5235 3.76579 23.0267Z" fill="#2DFF7D"/>
</svg>
