<?xml version="1.0" encoding="utf-8"?>
<!-- Generator: Adobe Illustrator 19.0.1, SVG Export Plug-In . SVG Version: 6.00 Build 0)  -->
<svg version="1.1" id="Шар_1" xmlns="http://www.w3.org/2000/svg" xmlns:xlink="http://www.w3.org/1999/xlink" x="0px" y="0px"
	 viewBox="-209 390.9 176 60" style="enable-background:new -209 390.9 176 60;" xml:space="preserve">
<style type="text/css">
	.st0{fill:#FFFFFF;}
	.st1{clip-path:url(#SVGID_2_);}
	.st2{fill:#F8D455;}
</style>
<path class="st0" d="M-151.7,427.6h9.7v3.3h-13.4v-18.6h13.2v3.3h-9.5v4.1h7.3v3.2h-7.3V427.6z M-132,431.1c-2.7,0-4.9-0.9-6.5-2.6
	c-1.6-1.8-2.4-4.1-2.4-6.9c0-1.9,0.4-3.5,1.1-4.9c0.7-1.5,1.8-2.6,3.1-3.4c1.4-0.8,2.9-1.2,4.7-1.2c2,0,3.7,0.5,5.1,1.4
	c1.4,0.9,2.4,2.3,2.9,4l-3.5,1.3c-0.7-2.3-2.2-3.5-4.5-3.5c-1.5,0-2.8,0.6-3.7,1.7c-0.9,1.1-1.4,2.7-1.4,4.6c0,2,0.5,3.5,1.4,4.6
	c0.9,1.1,2.1,1.7,3.7,1.7c2.3,0,3.8-1.2,4.5-3.5l3.5,1.3c-0.6,1.7-1.5,3-2.9,4C-128.4,430.7-130.1,431.1-132,431.1z M-113.9,431.1
	c-2.7,0-4.9-0.9-6.6-2.6c-1.7-1.8-2.5-4.1-2.5-6.9c0-1.9,0.4-3.5,1.1-4.9c0.8-1.5,1.9-2.6,3.2-3.4c1.4-0.8,2.9-1.2,4.7-1.2
	c2.8,0,5,0.9,6.6,2.6c1.7,1.7,2.5,4,2.5,6.9c0,1.9-0.4,3.5-1.2,5c-0.7,1.4-1.8,2.6-3.2,3.4C-110.6,430.7-112.2,431.1-113.9,431.1z
	 M-113.9,427.9c1.6,0,2.9-0.6,3.8-1.7c1-1.1,1.5-2.7,1.5-4.5c0-1.9-0.5-3.4-1.5-4.5c-0.9-1.1-2.2-1.7-3.8-1.7
	c-1.6,0-2.9,0.6-3.9,1.7c-0.9,1.1-1.4,2.7-1.4,4.5c0,1.9,0.5,3.4,1.4,4.5C-116.8,427.3-115.5,427.9-113.9,427.9z M-87.3,412.3v3.4
	h-6.4v15.1h-3.8v-15.1h-6.4v-3.4H-87.3z M-78.2,431.1c-2.7,0-4.9-0.9-6.6-2.6c-1.7-1.8-2.5-4.1-2.5-6.9c0-1.9,0.4-3.5,1.1-4.9
	c0.8-1.5,1.9-2.6,3.2-3.4c1.4-0.8,2.9-1.2,4.7-1.2c2.8,0,5,0.9,6.6,2.6c1.7,1.7,2.5,4,2.5,6.9c0,1.9-0.4,3.5-1.2,5
	c-0.7,1.4-1.8,2.6-3.2,3.4C-74.8,430.7-76.4,431.1-78.2,431.1z M-78.2,427.9c1.6,0,2.9-0.6,3.8-1.7c1-1.1,1.5-2.7,1.5-4.5
	c0-1.9-0.5-3.4-1.5-4.5c-0.9-1.1-2.2-1.7-3.8-1.7c-1.6,0-2.9,0.6-3.9,1.7c-0.9,1.1-1.4,2.7-1.4,4.5c0,1.9,0.5,3.4,1.4,4.5
	C-81.1,427.3-79.8,427.9-78.2,427.9z M-58.5,423.9h-3.8v7H-66v-18.6h8c2.1,0,3.8,0.5,5,1.6c1.2,1,1.9,2.4,1.9,4.2
	c0,1.3-0.3,2.4-0.9,3.3c-0.6,0.9-1.5,1.5-2.6,2l4.5,7.5h-4.2L-58.5,423.9z M-62.3,420.9h4c1.1,0,1.9-0.2,2.5-0.7
	c0.6-0.5,0.8-1.2,0.8-2.1c0-1.8-1.1-2.7-3.3-2.7h-4V420.9z M-34.3,415.7h-9.4v4.4h7.2v3.2h-7.2v7.7h-3.8v-18.6h13.2V415.7z"/>
<g>
	<defs>
		<rect id="SVGID_1_" x="-209" y="390.9" width="36" height="60"/>
	</defs>
	<clipPath id="SVGID_2_">
		<use xlink:href="#SVGID_1_"  style="overflow:visible;"/>
	</clipPath>
	<g class="st1">
		<path class="st2" d="M-204.6,420.3c3.1-4.5,7.4-8.7,10.6-13.5c0,0,0,0,0,0c3-4.4,5.2-9.5,4.9-15.9c22.2,30-1.7,42.8-6.8,53.3
			c9.7,1.9,23.5-9.8,18.5-24.1c5.2,8.2,7,17.6-1.6,26.1c-1.9,1.8-4.4,3.1-7,3.8c0,0,0,0,0,0c-4.3,1.2-8.5,0.9-10.4-0.1c0,0,0,0,0,0
			c-2.8-1.5-4.5-5-5-8.1c-0.7-4.3,0.9-7.8,3.4-11.5c4.5-6.8,11.5-13.9,10.7-24.7c-0.1,8.8-5.6,15.7-11,22c-0.6,0.7-1.4,1.7-2.1,2.4
			c-3.4,4-6.3,12.5-2.6,16.1C-210,439.5-211.3,429.9-204.6,420.3z"/>
	</g>
</g>
</svg>
