<svg width="35" height="51" viewBox="0 0 35 51" fill="none" xmlns="http://www.w3.org/2000/svg">
<path d="M22.7513 0.831444C21.0884 0.302343 19.2744 0 17.4225 0C12.0937 0 7.29403 2.41875 4.08163 6.23583L12.3205 13.1519L22.7513 0.831444Z" fill="#1A73E8"/>
<path d="M4.08163 6.23438C1.54951 9.25781 0 13.1883 0 17.4211C0 20.7091 0.642479 23.3546 1.73847 25.7355L12.3205 13.1505L4.08163 6.23438Z" fill="#EA4335"/>
<path d="M17.4603 10.7716C21.164 10.7716 24.1496 13.7572 24.1496 17.4609C24.1496 19.086 23.545 20.5977 22.5623 21.7693C22.5623 21.7693 27.8156 15.4957 32.9554 9.41102C30.839 5.32939 27.1731 2.23037 22.7513 0.832031L12.3205 13.1525C13.5676 11.7164 15.3817 10.7716 17.4603 10.7716Z" fill="#4285F4"/>
<path d="M17.4603 24.1123C13.7566 24.1123 10.771 21.1266 10.771 17.4229C10.771 15.7978 11.3379 14.2861 12.3205 13.1523L1.73846 25.7374C3.55252 29.7434 6.57595 32.9936 9.67497 37.0375L22.5623 21.7313C21.3152 23.2053 19.5011 24.1123 17.4603 24.1123Z" fill="#FBBC04"/>
<path d="M22.3356 41.2696C28.1557 32.1615 34.9206 28.042 34.9206 17.46C34.9206 14.55 34.2026 11.8289 32.9554 9.41016L9.67499 37.0368C10.6576 38.3217 11.678 39.7956 12.6606 41.3074C16.2132 46.7873 15.2305 50.0375 17.4981 50.0375C19.7657 50.0375 18.7831 46.7495 22.3356 41.2696Z" fill="#34A853"/>
</svg>
