<?xml version="1.0" encoding="utf-8"?>
<!-- Generator: Adobe Illustrator 19.0.1, SVG Export Plug-In . SVG Version: 6.00 Build 0)  -->
<svg version="1.1" id="Шар_1" xmlns="http://www.w3.org/2000/svg" xmlns:xlink="http://www.w3.org/1999/xlink" x="0px" y="0px"
	 viewBox="-280 395.9 35 51" style="enable-background:new -280 395.9 35 51;" xml:space="preserve">
<style type="text/css">
	.st0{fill:#EC4E61;}
</style>
<g>
	<path class="st0" d="M-267.7,409L-267.7,409l10.4-12.3c-1.7-0.5-3.5-0.8-5.3-0.8c-5.3,0-10.1,2.4-13.3,6.2l0,0
		c-2.5,3-4.1,7-4.1,11.2c0,3.3,0.6,5.9,1.7,8.3L-267.7,409z"/>
	<path class="st0" d="M-247,405.3L-247,405.3c-2.1-4.1-5.8-7.2-10.2-8.6l-10.4,12.3c1.2-1.4,3.1-2.4,5.1-2.4c3.7,0,6.7,3,6.7,6.7
		c0,1.6-0.6,3-1.5,4.1l-12.3,14.6l12.2-14.5c-1.2,1.5-3.1,2.4-5.1,2.4c-3.7,0-6.7-3-6.7-6.7c0-1.6,0.6-3.1,1.5-4.3l-10.6,12.6
		c1.8,4,4.8,7.3,7.9,11.3l0,0c1,1.3,2,2.8,3,4.3c3.6,5.5,2.6,8.7,4.8,8.7s1.3-3.3,4.8-8.8c5.8-9.1,12.6-13.2,12.6-23.8
		C-245.1,410.4-245.8,407.7-247,405.3z M-251.6,410.8c1.3-1.6,2.8-3.3,4.2-5L-251.6,410.8z"/>
</g>
</svg>
